<svg width="333" height="239" viewBox="0 0 311 268" fill="none" xmlns="http://www.w3.org/2000/svg">
<path d="M304 8.99997C304 9.39554 304.118 9.78222 304.339 10.1111C304.559 10.44 304.873 10.6964 305.241 10.8477C305.608 10.9991 306.012 11.0387 306.402 10.9616C306.791 10.8844 307.149 10.6939 307.43 10.4142C307.712 10.1345 307.903 9.77812 307.98 9.39016C308.058 9.00219 308.018 8.60006 307.866 8.23461C307.714 7.86915 307.456 7.55679 307.126 7.33703C306.795 7.11727 306.407 6.99997 306.01 6.99997C305.477 6.99997 304.965 7.21068 304.589 7.58576C304.212 7.96083 304 8.46954 304 8.99997ZM304 16C304 16.3956 304.118 16.7822 304.339 17.1111C304.559 17.44 304.873 17.6964 305.241 17.8478C305.608 17.9991 306.012 18.0387 306.402 17.9616C306.791 17.8844 307.149 17.6939 307.43 17.4142C307.712 17.1345 307.903 16.7781 307.98 16.3902C308.058 16.0022 308.018 15.6001 307.866 15.2346C307.714 14.8692 307.456 14.5568 307.126 14.337C306.795 14.1173 306.407 14 306.01 14C305.477 14 304.965 14.2107 304.589 14.5858C304.212 14.9608 304 15.4696 304 16ZM304 1.99996C304 2.39552 304.118 2.7822 304.339 3.1111C304.559 3.44 304.873 3.69634 305.241 3.84772C305.608 3.9991 306.012 4.0387 306.402 3.96153C306.791 3.88436 307.149 3.69388 307.43 3.41417C307.712 3.13447 307.903 2.7781 307.98 2.39014C308.058 2.00217 308.018 1.60004 307.866 1.23459C307.714 0.869133 307.456 0.556776 307.126 0.337012C306.795 0.117249 306.407 -4.94574e-05 306.01 -4.94401e-05C305.477 -4.94169e-05 304.965 0.210665 304.589 0.585739C304.212 0.960813 304 1.46952 304 1.99996Z" fill="white"/>
<path d="M143.663 65.5946C142.265 61.8183 144.187 57.5779 148.101 56.6287C159.002 53.9845 170.463 54.3152 181.266 57.6543C194.401 61.7144 205.829 69.995 213.778 81.2121C221.727 92.4292 225.753 105.956 225.23 119.694C224.708 133.432 219.668 146.614 210.89 157.195C202.113 167.777 190.089 175.166 176.684 178.218C163.279 181.269 149.241 179.812 136.749 174.072C124.256 168.332 114.006 158.631 107.589 146.472C102.312 136.473 99.8692 125.27 100.454 114.068C100.664 110.047 104.476 107.374 108.445 108.05V108.05C112.415 108.727 115.026 112.503 114.959 116.53C114.826 124.545 116.709 132.507 120.487 139.666C125.405 148.985 133.261 156.421 142.837 160.821C152.412 165.22 163.172 166.337 173.447 163.998C183.722 161.659 192.938 155.995 199.666 147.885C206.394 139.774 210.257 129.67 210.658 119.14C211.058 108.61 207.972 98.2419 201.879 89.6441C195.786 81.0463 187.027 74.6992 176.959 71.5873C169.226 69.1969 161.053 68.8179 153.2 70.4292C149.255 71.2387 145.062 69.371 143.663 65.5946V65.5946Z" fill="white"/>
<g filter="url(#filter0_d_0_1)">
<path d="M201.889 156.39C204.702 159.203 204.725 163.802 201.607 166.273C193.222 172.916 183.237 177.321 172.592 179.007C159.565 181.07 146.22 178.956 134.469 172.969C122.717 166.981 113.163 157.427 107.176 145.676C101.188 133.924 99.0744 120.579 101.138 107.553C103.201 94.5261 109.335 82.4872 118.661 73.1613C127.987 63.8354 140.026 57.7012 153.052 55.638C166.079 53.5749 179.424 55.6885 191.175 61.6761C200.778 66.5691 208.914 73.8439 214.835 82.7531C217.037 86.0665 215.594 90.4334 212.05 92.2396V92.2396C208.505 94.0458 204.208 92.5953 201.892 89.36C197.432 83.1283 191.524 78.0239 184.634 74.5133C175.594 69.9069 165.327 68.2809 155.306 69.8681C145.285 71.4553 136.023 76.1744 128.848 83.3489C121.674 90.5234 116.955 99.785 115.368 109.806C113.78 119.828 115.406 130.094 120.013 139.135C124.619 148.175 131.969 155.525 141.01 160.132C150.05 164.738 160.317 166.364 170.338 164.777C177.976 163.567 185.172 160.538 191.339 155.99C194.541 153.628 199.076 153.576 201.889 156.39V156.39Z" fill="url(#paint0_diamond_0_1)"/>
</g>
<path d="M155.145 114.54L149.825 127H146.985L152.345 114.86H145.505V112.46H155.145V114.54ZM159.262 119.28C157.928 118.587 157.262 117.513 157.262 116.06C157.262 115.34 157.442 114.687 157.802 114.1C158.175 113.5 158.728 113.027 159.462 112.68C160.208 112.32 161.115 112.14 162.182 112.14C163.248 112.14 164.148 112.32 164.882 112.68C165.628 113.027 166.182 113.5 166.542 114.1C166.915 114.687 167.102 115.34 167.102 116.06C167.102 116.793 166.922 117.44 166.562 118C166.202 118.547 165.722 118.973 165.122 119.28C165.855 119.6 166.428 120.067 166.842 120.68C167.255 121.293 167.462 122.02 167.462 122.86C167.462 123.767 167.228 124.56 166.762 125.24C166.308 125.907 165.682 126.42 164.882 126.78C164.082 127.14 163.182 127.32 162.182 127.32C161.182 127.32 160.282 127.14 159.482 126.78C158.695 126.42 158.068 125.907 157.602 125.24C157.148 124.56 156.922 123.767 156.922 122.86C156.922 122.02 157.128 121.293 157.542 120.68C157.955 120.053 158.528 119.587 159.262 119.28ZM164.382 116.46C164.382 115.807 164.182 115.3 163.782 114.94C163.395 114.58 162.862 114.4 162.182 114.4C161.515 114.4 160.982 114.58 160.582 114.94C160.195 115.3 160.002 115.813 160.002 116.48C160.002 117.08 160.202 117.56 160.602 117.92C161.015 118.28 161.542 118.46 162.182 118.46C162.822 118.46 163.348 118.28 163.762 117.92C164.175 117.547 164.382 117.06 164.382 116.46ZM162.182 120.5C161.422 120.5 160.802 120.693 160.322 121.08C159.855 121.467 159.622 122.02 159.622 122.74C159.622 123.407 159.848 123.953 160.302 124.38C160.768 124.793 161.395 125 162.182 125C162.968 125 163.588 124.787 164.042 124.36C164.495 123.933 164.722 123.393 164.722 122.74C164.722 122.033 164.488 121.487 164.022 121.1C163.555 120.7 162.942 120.5 162.182 120.5ZM169.353 116C169.353 114.987 169.647 114.193 170.233 113.62C170.833 113.047 171.6 112.76 172.533 112.76C173.467 112.76 174.227 113.047 174.813 113.62C175.413 114.193 175.713 114.987 175.713 116C175.713 117.027 175.413 117.827 174.813 118.4C174.227 118.973 173.467 119.26 172.533 119.26C171.6 119.26 170.833 118.973 170.233 118.4C169.647 117.827 169.353 117.027 169.353 116ZM182.193 113L174.333 127H171.613L179.453 113H182.193ZM172.513 114.44C171.78 114.44 171.413 114.96 171.413 116C171.413 117.053 171.78 117.58 172.513 117.58C172.873 117.58 173.153 117.453 173.353 117.2C173.553 116.933 173.653 116.533 173.653 116C173.653 114.96 173.273 114.44 172.513 114.44ZM178.133 123.98C178.133 122.953 178.427 122.16 179.013 121.6C179.613 121.027 180.38 120.74 181.313 120.74C182.247 120.74 183 121.027 183.573 121.6C184.16 122.16 184.453 122.953 184.453 123.98C184.453 125.007 184.16 125.807 183.573 126.38C183 126.953 182.247 127.24 181.313 127.24C180.367 127.24 179.6 126.953 179.013 126.38C178.427 125.807 178.133 125.007 178.133 123.98ZM181.293 122.42C180.533 122.42 180.153 122.94 180.153 123.98C180.153 125.033 180.533 125.56 181.293 125.56C182.04 125.56 182.413 125.033 182.413 123.98C182.413 122.94 182.04 122.42 181.293 122.42Z" fill="white"/>
<g filter="url(#filter1_d_0_1)">
<circle cx="13" cy="218.5" r="4.5" fill="url(#paint1_diamond_0_1)"/>
</g>
<path d="M30.732 223L28.812 219.664H27.768V223H26.4V214.66H29.28C29.92 214.66 30.46 214.772 30.9 214.996C31.348 215.22 31.68 215.52 31.896 215.896C32.12 216.272 32.232 216.692 32.232 217.156C32.232 217.7 32.072 218.196 31.752 218.644C31.44 219.084 30.956 219.384 30.3 219.544L32.364 223H30.732ZM27.768 218.572H29.28C29.792 218.572 30.176 218.444 30.432 218.188C30.696 217.932 30.828 217.588 30.828 217.156C30.828 216.724 30.7 216.388 30.444 216.148C30.188 215.9 29.8 215.776 29.28 215.776H27.768V218.572ZM40.042 219.532C40.042 219.78 40.026 220.004 39.994 220.204H34.942C34.982 220.732 35.178 221.156 35.53 221.476C35.882 221.796 36.314 221.956 36.826 221.956C37.562 221.956 38.082 221.648 38.386 221.032H39.862C39.662 221.64 39.298 222.14 38.77 222.532C38.25 222.916 37.602 223.108 36.826 223.108C36.194 223.108 35.626 222.968 35.122 222.688C34.626 222.4 34.234 222 33.946 221.488C33.666 220.968 33.526 220.368 33.526 219.688C33.526 219.008 33.662 218.412 33.934 217.9C34.214 217.38 34.602 216.98 35.098 216.7C35.602 216.42 36.178 216.28 36.826 216.28C37.45 216.28 38.006 216.416 38.494 216.688C38.982 216.96 39.362 217.344 39.634 217.84C39.906 218.328 40.042 218.892 40.042 219.532ZM38.614 219.1C38.606 218.596 38.426 218.192 38.074 217.888C37.722 217.584 37.286 217.432 36.766 217.432C36.294 217.432 35.89 217.584 35.554 217.888C35.218 218.184 35.018 218.588 34.954 219.1H38.614ZM43.7883 223.108C43.2683 223.108 42.8003 223.016 42.3843 222.832C41.9763 222.64 41.6523 222.384 41.4123 222.064C41.1723 221.736 41.0443 221.372 41.0283 220.972H42.4443C42.4683 221.252 42.6003 221.488 42.8403 221.68C43.0883 221.864 43.3963 221.956 43.7643 221.956C44.1483 221.956 44.4443 221.884 44.6523 221.74C44.8683 221.588 44.9763 221.396 44.9763 221.164C44.9763 220.916 44.8563 220.732 44.6163 220.612C44.3843 220.492 44.0123 220.36 43.5003 220.216C43.0043 220.08 42.6003 219.948 42.2883 219.82C41.9763 219.692 41.7043 219.496 41.4723 219.232C41.2483 218.968 41.1363 218.62 41.1363 218.188C41.1363 217.836 41.2403 217.516 41.4483 217.228C41.6563 216.932 41.9523 216.7 42.3363 216.532C42.7283 216.364 43.1763 216.28 43.6803 216.28C44.4323 216.28 45.0363 216.472 45.4923 216.856C45.9563 217.232 46.2043 217.748 46.2363 218.404H44.8683C44.8443 218.108 44.7243 217.872 44.5083 217.696C44.2923 217.52 44.0003 217.432 43.6323 217.432C43.2723 217.432 42.9963 217.5 42.8043 217.636C42.6123 217.772 42.5163 217.952 42.5163 218.176C42.5163 218.352 42.5803 218.5 42.7083 218.62C42.8363 218.74 42.9923 218.836 43.1763 218.908C43.3603 218.972 43.6323 219.056 43.9923 219.16C44.4723 219.288 44.8643 219.42 45.1683 219.556C45.4803 219.684 45.7483 219.876 45.9723 220.132C46.1963 220.388 46.3123 220.728 46.3203 221.152C46.3203 221.528 46.2163 221.864 46.0083 222.16C45.8003 222.456 45.5043 222.688 45.1203 222.856C44.7443 223.024 44.3003 223.108 43.7883 223.108ZM53.7864 216.388V223H52.4184V222.22C52.2024 222.492 51.9184 222.708 51.5664 222.868C51.2224 223.02 50.8544 223.096 50.4624 223.096C49.9424 223.096 49.4744 222.988 49.0584 222.772C48.6504 222.556 48.3264 222.236 48.0864 221.812C47.8544 221.388 47.7384 220.876 47.7384 220.276V216.388H49.0944V220.072C49.0944 220.664 49.2424 221.12 49.5384 221.44C49.8344 221.752 50.2384 221.908 50.7504 221.908C51.2624 221.908 51.6664 221.752 51.9624 221.44C52.2664 221.12 52.4184 220.664 52.4184 220.072V216.388H53.7864ZM56.9594 214.12V223H55.5914V214.12H56.9594ZM60.3515 217.504V221.164C60.3515 221.412 60.4075 221.592 60.5195 221.704C60.6395 221.808 60.8395 221.86 61.1195 221.86H61.9595V223H60.8795C60.2635 223 59.7915 222.856 59.4635 222.568C59.1355 222.28 58.9715 221.812 58.9715 221.164V217.504H58.1915V216.388H58.9715V214.744H60.3515V216.388H61.9595V217.504H60.3515ZM71.3655 221.296H67.8735L67.2735 223H65.8455L68.8335 214.648H70.4175L73.4055 223H71.9655L71.3655 221.296ZM70.9815 220.18L69.6255 216.304L68.2575 220.18H70.9815ZM74.2487 219.688C74.2487 219.008 74.3847 218.412 74.6567 217.9C74.9367 217.38 75.3207 216.98 75.8087 216.7C76.2967 216.42 76.8567 216.28 77.4887 216.28C78.2887 216.28 78.9487 216.472 79.4687 216.856C79.9967 217.232 80.3527 217.772 80.5367 218.476H79.0607C78.9407 218.148 78.7487 217.892 78.4847 217.708C78.2207 217.524 77.8887 217.432 77.4887 217.432C76.9287 217.432 76.4807 217.632 76.1447 218.032C75.8167 218.424 75.6527 218.976 75.6527 219.688C75.6527 220.4 75.8167 220.956 76.1447 221.356C76.4807 221.756 76.9287 221.956 77.4887 221.956C78.2807 221.956 78.8047 221.608 79.0607 220.912H80.5367C80.3447 221.584 79.9847 222.12 79.4567 222.52C78.9287 222.912 78.2727 223.108 77.4887 223.108C76.8567 223.108 76.2967 222.968 75.8087 222.688C75.3207 222.4 74.9367 222 74.6567 221.488C74.3847 220.968 74.2487 220.368 74.2487 219.688ZM85.32 216.28C85.824 216.28 86.272 216.388 86.664 216.604C87.064 216.82 87.376 217.14 87.6 217.564C87.832 217.988 87.948 218.5 87.948 219.1V223H86.592V219.304C86.592 218.712 86.444 218.26 86.148 217.948C85.852 217.628 85.448 217.468 84.936 217.468C84.424 217.468 84.016 217.628 83.712 217.948C83.416 218.26 83.268 218.712 83.268 219.304V223H81.9V214.12H83.268V217.156C83.5 216.876 83.792 216.66 84.144 216.508C84.504 216.356 84.896 216.28 85.32 216.28ZM90.389 215.512C90.141 215.512 89.933 215.428 89.765 215.26C89.597 215.092 89.513 214.884 89.513 214.636C89.513 214.388 89.597 214.18 89.765 214.012C89.933 213.844 90.141 213.76 90.389 213.76C90.629 213.76 90.833 213.844 91.001 214.012C91.169 214.18 91.253 214.388 91.253 214.636C91.253 214.884 91.169 215.092 91.001 215.26C90.833 215.428 90.629 215.512 90.389 215.512ZM91.061 216.388V223H89.693V216.388H91.061ZM98.917 219.532C98.917 219.78 98.901 220.004 98.869 220.204H93.817C93.857 220.732 94.053 221.156 94.405 221.476C94.757 221.796 95.189 221.956 95.701 221.956C96.437 221.956 96.957 221.648 97.261 221.032H98.737C98.537 221.64 98.173 222.14 97.645 222.532C97.125 222.916 96.477 223.108 95.701 223.108C95.069 223.108 94.501 222.968 93.997 222.688C93.501 222.4 93.109 222 92.821 221.488C92.541 220.968 92.401 220.368 92.401 219.688C92.401 219.008 92.537 218.412 92.809 217.9C93.089 217.38 93.477 216.98 93.973 216.7C94.477 216.42 95.053 216.28 95.701 216.28C96.325 216.28 96.881 216.416 97.369 216.688C97.857 216.96 98.237 217.344 98.509 217.84C98.781 218.328 98.917 218.892 98.917 219.532ZM97.489 219.1C97.481 218.596 97.301 218.192 96.949 217.888C96.597 217.584 96.161 217.432 95.641 217.432C95.169 217.432 94.765 217.584 94.429 217.888C94.093 218.184 93.893 218.588 93.829 219.1H97.489ZM102.819 221.776L104.691 216.388H106.143L103.623 223H101.991L99.4833 216.388H100.947L102.819 221.776ZM113.237 219.532C113.237 219.78 113.221 220.004 113.189 220.204H108.137C108.177 220.732 108.373 221.156 108.725 221.476C109.077 221.796 109.509 221.956 110.021 221.956C110.757 221.956 111.277 221.648 111.581 221.032H113.057C112.857 221.64 112.493 222.14 111.965 222.532C111.445 222.916 110.797 223.108 110.021 223.108C109.389 223.108 108.821 222.968 108.317 222.688C107.821 222.4 107.429 222 107.141 221.488C106.861 220.968 106.721 220.368 106.721 219.688C106.721 219.008 106.857 218.412 107.129 217.9C107.409 217.38 107.797 216.98 108.293 216.7C108.797 216.42 109.373 216.28 110.021 216.28C110.645 216.28 111.201 216.416 111.689 216.688C112.177 216.96 112.557 217.344 112.829 217.84C113.101 218.328 113.237 218.892 113.237 219.532ZM111.809 219.1C111.801 218.596 111.621 218.192 111.269 217.888C110.917 217.584 110.481 217.432 109.961 217.432C109.489 217.432 109.085 217.584 108.749 217.888C108.413 218.184 108.213 218.588 108.149 219.1H111.809ZM114.128 219.664C114.128 219 114.264 218.412 114.536 217.9C114.816 217.388 115.192 216.992 115.664 216.712C116.144 216.424 116.676 216.28 117.26 216.28C117.692 216.28 118.116 216.376 118.532 216.568C118.956 216.752 119.292 217 119.54 217.312V214.12H120.92V223H119.54V222.004C119.316 222.324 119.004 222.588 118.604 222.796C118.212 223.004 117.76 223.108 117.248 223.108C116.672 223.108 116.144 222.964 115.664 222.676C115.192 222.38 114.816 221.972 114.536 221.452C114.264 220.924 114.128 220.328 114.128 219.664ZM119.54 219.688C119.54 219.232 119.444 218.836 119.252 218.5C119.068 218.164 118.824 217.908 118.52 217.732C118.216 217.556 117.888 217.468 117.536 217.468C117.184 217.468 116.856 217.556 116.552 217.732C116.248 217.9 116 218.152 115.808 218.488C115.624 218.816 115.532 219.208 115.532 219.664C115.532 220.12 115.624 220.52 115.808 220.864C116 221.208 116.248 221.472 116.552 221.656C116.864 221.832 117.192 221.92 117.536 221.92C117.888 221.92 118.216 221.832 118.52 221.656C118.824 221.48 119.068 221.224 119.252 220.888C119.444 220.544 119.54 220.144 119.54 219.688Z" fill="white"/>
<path opacity="0.6" d="M30.39 247.45H27.35L26.79 249H25.83L28.35 242.07H29.4L31.91 249H30.95L30.39 247.45ZM30.13 246.71L28.87 243.19L27.61 246.71H30.13ZM32.6683 246.25C32.6683 245.683 32.7816 245.19 33.0083 244.77C33.2349 244.343 33.5483 244.013 33.9483 243.78C34.3549 243.547 34.8183 243.43 35.3383 243.43C36.0116 243.43 36.5649 243.593 36.9983 243.92C37.4383 244.247 37.7283 244.7 37.8683 245.28H36.8883C36.7949 244.947 36.6116 244.683 36.3383 244.49C36.0716 244.297 35.7383 244.2 35.3383 244.2C34.8183 244.2 34.3983 244.38 34.0783 244.74C33.7583 245.093 33.5983 245.597 33.5983 246.25C33.5983 246.91 33.7583 247.42 34.0783 247.78C34.3983 248.14 34.8183 248.32 35.3383 248.32C35.7383 248.32 36.0716 248.227 36.3383 248.04C36.6049 247.853 36.7883 247.587 36.8883 247.24H37.8683C37.7216 247.8 37.4283 248.25 36.9883 248.59C36.5483 248.923 35.9983 249.09 35.3383 249.09C34.8183 249.09 34.3549 248.973 33.9483 248.74C33.5483 248.507 33.2349 248.177 33.0083 247.75C32.7816 247.323 32.6683 246.823 32.6683 246.25ZM41.8025 243.42C42.2158 243.42 42.5892 243.51 42.9225 243.69C43.2558 243.863 43.5158 244.127 43.7025 244.48C43.8958 244.833 43.9925 245.263 43.9925 245.77V249H43.0925V245.9C43.0925 245.353 42.9558 244.937 42.6825 244.65C42.4092 244.357 42.0358 244.21 41.5625 244.21C41.0825 244.21 40.6992 244.36 40.4125 244.66C40.1325 244.96 39.9925 245.397 39.9925 245.97V249H39.0825V241.6H39.9925V244.3C40.1725 244.02 40.4192 243.803 40.7325 243.65C41.0525 243.497 41.4092 243.42 41.8025 243.42ZM45.949 242.63C45.7757 242.63 45.629 242.57 45.509 242.45C45.389 242.33 45.329 242.183 45.329 242.01C45.329 241.837 45.389 241.69 45.509 241.57C45.629 241.45 45.7757 241.39 45.949 241.39C46.1157 241.39 46.2557 241.45 46.369 241.57C46.489 241.69 46.549 241.837 46.549 242.01C46.549 242.183 46.489 242.33 46.369 242.45C46.2557 242.57 46.1157 242.63 45.949 242.63ZM46.389 243.52V249H45.479V243.52H46.389ZM52.9399 246.05C52.9399 246.223 52.9299 246.407 52.9099 246.6H48.5299C48.5633 247.14 48.7466 247.563 49.0799 247.87C49.4199 248.17 49.8299 248.32 50.3099 248.32C50.7033 248.32 51.0299 248.23 51.2899 248.05C51.5566 247.863 51.7433 247.617 51.8499 247.31H52.8299C52.6833 247.837 52.3899 248.267 51.9499 248.6C51.5099 248.927 50.9633 249.09 50.3099 249.09C49.7899 249.09 49.3233 248.973 48.9099 248.74C48.5033 248.507 48.1833 248.177 47.9499 247.75C47.7166 247.317 47.5999 246.817 47.5999 246.25C47.5999 245.683 47.7133 245.187 47.9399 244.76C48.1666 244.333 48.4833 244.007 48.8899 243.78C49.3033 243.547 49.7766 243.43 50.3099 243.43C50.8299 243.43 51.2899 243.543 51.6899 243.77C52.0899 243.997 52.3966 244.31 52.6099 244.71C52.8299 245.103 52.9399 245.55 52.9399 246.05ZM51.9999 245.86C51.9999 245.513 51.9233 245.217 51.7699 244.97C51.6166 244.717 51.4066 244.527 51.1399 244.4C50.8799 244.267 50.5899 244.2 50.2699 244.2C49.8099 244.2 49.4166 244.347 49.0899 244.64C48.7699 244.933 48.5866 245.34 48.5399 245.86H51.9999ZM56.1811 248.16L57.8811 243.52H58.8511L56.7011 249H55.6411L53.4911 243.52H54.4711L56.1811 248.16ZM64.7466 246.05C64.7466 246.223 64.7366 246.407 64.7166 246.6H60.3366C60.3699 247.14 60.5532 247.563 60.8866 247.87C61.2266 248.17 61.6366 248.32 62.1166 248.32C62.5099 248.32 62.8366 248.23 63.0966 248.05C63.3632 247.863 63.5499 247.617 63.6566 247.31H64.6366C64.4899 247.837 64.1966 248.267 63.7566 248.6C63.3166 248.927 62.7699 249.09 62.1166 249.09C61.5966 249.09 61.1299 248.973 60.7166 248.74C60.3099 248.507 59.9899 248.177 59.7566 247.75C59.5232 247.317 59.4066 246.817 59.4066 246.25C59.4066 245.683 59.5199 245.187 59.7466 244.76C59.9732 244.333 60.2899 244.007 60.6966 243.78C61.1099 243.547 61.5832 243.43 62.1166 243.43C62.6366 243.43 63.0966 243.543 63.4966 243.77C63.8966 243.997 64.2032 244.31 64.4166 244.71C64.6366 245.103 64.7466 245.55 64.7466 246.05ZM63.8066 245.86C63.8066 245.513 63.7299 245.217 63.5766 244.97C63.4232 244.717 63.2132 244.527 62.9466 244.4C62.6866 244.267 62.3966 244.2 62.0766 244.2C61.6166 244.2 61.2232 244.347 60.8966 244.64C60.5766 244.933 60.3932 245.34 60.3466 245.86H63.8066ZM65.6077 246.24C65.6077 245.68 65.7211 245.19 65.9477 244.77C66.1744 244.343 66.4844 244.013 66.8777 243.78C67.2777 243.547 67.7244 243.43 68.2177 243.43C68.6444 243.43 69.0411 243.53 69.4077 243.73C69.7744 243.923 70.0544 244.18 70.2477 244.5V241.6H71.1677V249H70.2477V247.97C70.0677 248.297 69.8011 248.567 69.4477 248.78C69.0944 248.987 68.6811 249.09 68.2077 249.09C67.7211 249.09 67.2777 248.97 66.8777 248.73C66.4844 248.49 66.1744 248.153 65.9477 247.72C65.7211 247.287 65.6077 246.793 65.6077 246.24ZM70.2477 246.25C70.2477 245.837 70.1644 245.477 69.9977 245.17C69.8311 244.863 69.6044 244.63 69.3177 244.47C69.0377 244.303 68.7277 244.22 68.3877 244.22C68.0477 244.22 67.7377 244.3 67.4577 244.46C67.1777 244.62 66.9544 244.853 66.7877 245.16C66.6211 245.467 66.5377 245.827 66.5377 246.24C66.5377 246.66 66.6211 247.027 66.7877 247.34C66.9544 247.647 67.1777 247.883 67.4577 248.05C67.7377 248.21 68.0477 248.29 68.3877 248.29C68.7277 248.29 69.0377 248.21 69.3177 248.05C69.6044 247.883 69.8311 247.647 69.9977 247.34C70.1644 247.027 70.2477 246.663 70.2477 246.25ZM82.6716 243.52L80.9616 249H80.0216L78.7016 244.65L77.3816 249H76.4416L74.7216 243.52H75.6516L76.9116 248.12L78.2716 243.52H79.2016L80.5316 248.13L81.7716 243.52H82.6716ZM88.5747 246.05C88.5747 246.223 88.5647 246.407 88.5447 246.6H84.1647C84.198 247.14 84.3814 247.563 84.7147 247.87C85.0547 248.17 85.4647 248.32 85.9447 248.32C86.338 248.32 86.6647 248.23 86.9247 248.05C87.1914 247.863 87.378 247.617 87.4847 247.31H88.4647C88.318 247.837 88.0247 248.267 87.5847 248.6C87.1447 248.927 86.598 249.09 85.9447 249.09C85.4247 249.09 84.958 248.973 84.5447 248.74C84.138 248.507 83.818 248.177 83.5847 247.75C83.3514 247.317 83.2347 246.817 83.2347 246.25C83.2347 245.683 83.348 245.187 83.5747 244.76C83.8014 244.333 84.118 244.007 84.5247 243.78C84.938 243.547 85.4114 243.43 85.9447 243.43C86.4647 243.43 86.9247 243.543 87.3247 243.77C87.7247 243.997 88.0314 244.31 88.2447 244.71C88.4647 245.103 88.5747 245.55 88.5747 246.05ZM87.6347 245.86C87.6347 245.513 87.558 245.217 87.4047 244.97C87.2514 244.717 87.0414 244.527 86.7747 244.4C86.5147 244.267 86.2247 244.2 85.9047 244.2C85.4447 244.2 85.0514 244.347 84.7247 244.64C84.4047 244.933 84.2214 245.34 84.1747 245.86H87.6347ZM90.6859 241.6V249H89.7759V241.6H90.6859ZM93.1468 241.6V249H92.2368V241.6H93.1468ZM97.0238 246.24C97.0238 245.68 97.1371 245.19 97.3638 244.77C97.5904 244.343 97.9004 244.013 98.2938 243.78C98.6938 243.547 99.1371 243.43 99.6238 243.43C100.104 243.43 100.52 243.533 100.874 243.74C101.227 243.947 101.49 244.207 101.664 244.52V243.52H102.584V249H101.664V247.98C101.484 248.3 101.214 248.567 100.854 248.78C100.5 248.987 100.087 249.09 99.6138 249.09C99.1271 249.09 98.6871 248.97 98.2938 248.73C97.9004 248.49 97.5904 248.153 97.3638 247.72C97.1371 247.287 97.0238 246.793 97.0238 246.24ZM101.664 246.25C101.664 245.837 101.58 245.477 101.414 245.17C101.247 244.863 101.02 244.63 100.734 244.47C100.454 244.303 100.144 244.22 99.8038 244.22C99.4638 244.22 99.1538 244.3 98.8738 244.46C98.5938 244.62 98.3704 244.853 98.2038 245.16C98.0371 245.467 97.9538 245.827 97.9538 246.24C97.9538 246.66 98.0371 247.027 98.2038 247.34C98.3704 247.647 98.5938 247.883 98.8738 248.05C99.1538 248.21 99.4638 248.29 99.8038 248.29C100.144 248.29 100.454 248.21 100.734 248.05C101.02 247.883 101.247 247.647 101.414 247.34C101.58 247.027 101.664 246.663 101.664 246.25ZM106.792 243.42C107.458 243.42 107.998 243.623 108.412 244.03C108.825 244.43 109.032 245.01 109.032 245.77V249H108.132V245.9C108.132 245.353 107.995 244.937 107.722 244.65C107.448 244.357 107.075 244.21 106.602 244.21C106.122 244.21 105.738 244.36 105.452 244.66C105.172 244.96 105.032 245.397 105.032 245.97V249H104.122V243.52H105.032V244.3C105.212 244.02 105.455 243.803 105.762 243.65C106.075 243.497 106.418 243.42 106.792 243.42ZM110.178 246.24C110.178 245.68 110.291 245.19 110.518 244.77C110.745 244.343 111.055 244.013 111.448 243.78C111.848 243.547 112.295 243.43 112.788 243.43C113.215 243.43 113.611 243.53 113.978 243.73C114.345 243.923 114.625 244.18 114.818 244.5V241.6H115.738V249H114.818V247.97C114.638 248.297 114.371 248.567 114.018 248.78C113.665 248.987 113.251 249.09 112.778 249.09C112.291 249.09 111.848 248.97 111.448 248.73C111.055 248.49 110.745 248.153 110.518 247.72C110.291 247.287 110.178 246.793 110.178 246.24ZM114.818 246.25C114.818 245.837 114.735 245.477 114.568 245.17C114.401 244.863 114.175 244.63 113.888 244.47C113.608 244.303 113.298 244.22 112.958 244.22C112.618 244.22 112.308 244.3 112.028 244.46C111.748 244.62 111.525 244.853 111.358 245.16C111.191 245.467 111.108 245.827 111.108 246.24C111.108 246.66 111.191 247.027 111.358 247.34C111.525 247.647 111.748 247.883 112.028 248.05C112.308 248.21 112.618 248.29 112.958 248.29C113.298 248.29 113.608 248.21 113.888 248.05C114.175 247.883 114.401 247.647 114.568 247.34C114.735 247.027 114.818 246.663 114.818 246.25ZM28.21 264.09C27.79 264.09 27.4133 264.02 27.08 263.88C26.7467 263.733 26.4833 263.533 26.29 263.28C26.0967 263.02 25.99 262.723 25.97 262.39H26.91C26.9367 262.663 27.0633 262.887 27.29 263.06C27.5233 263.233 27.8267 263.32 28.2 263.32C28.5467 263.32 28.82 263.243 29.02 263.09C29.22 262.937 29.32 262.743 29.32 262.51C29.32 262.27 29.2133 262.093 29 261.98C28.7867 261.86 28.4567 261.743 28.01 261.63C27.6033 261.523 27.27 261.417 27.01 261.31C26.7567 261.197 26.5367 261.033 26.35 260.82C26.17 260.6 26.08 260.313 26.08 259.96C26.08 259.68 26.1633 259.423 26.33 259.19C26.4967 258.957 26.7333 258.773 27.04 258.64C27.3467 258.5 27.6967 258.43 28.09 258.43C28.6967 258.43 29.1867 258.583 29.56 258.89C29.9333 259.197 30.1333 259.617 30.16 260.15H29.25C29.23 259.863 29.1133 259.633 28.9 259.46C28.6933 259.287 28.4133 259.2 28.06 259.2C27.7333 259.2 27.4733 259.27 27.28 259.41C27.0867 259.55 26.99 259.733 26.99 259.96C26.99 260.14 27.0467 260.29 27.16 260.41C27.28 260.523 27.4267 260.617 27.6 260.69C27.78 260.757 28.0267 260.833 28.34 260.92C28.7333 261.027 29.0533 261.133 29.3 261.24C29.5467 261.34 29.7567 261.493 29.93 261.7C30.11 261.907 30.2033 262.177 30.21 262.51C30.21 262.81 30.1267 263.08 29.96 263.32C29.7933 263.56 29.5567 263.75 29.25 263.89C28.95 264.023 28.6033 264.09 28.21 264.09ZM38.0846 258.42C38.5113 258.42 38.8913 258.51 39.2246 258.69C39.5579 258.863 39.8213 259.127 40.0146 259.48C40.2079 259.833 40.3046 260.263 40.3046 260.77V264H39.4046V260.9C39.4046 260.353 39.2679 259.937 38.9946 259.65C38.7279 259.357 38.3646 259.21 37.9046 259.21C37.4313 259.21 37.0546 259.363 36.7746 259.67C36.4946 259.97 36.3546 260.407 36.3546 260.98V264H35.4546V260.9C35.4546 260.353 35.3179 259.937 35.0446 259.65C34.7779 259.357 34.4146 259.21 33.9546 259.21C33.4813 259.21 33.1046 259.363 32.8246 259.67C32.5446 259.97 32.4046 260.407 32.4046 260.98V264H31.4946V258.52H32.4046V259.31C32.5846 259.023 32.8246 258.803 33.1246 258.65C33.4313 258.497 33.7679 258.42 34.1346 258.42C34.5946 258.42 35.0013 258.523 35.3546 258.73C35.7079 258.937 35.9713 259.24 36.1446 259.64C36.2979 259.253 36.5513 258.953 36.9046 258.74C37.2579 258.527 37.6513 258.42 38.0846 258.42ZM44.1873 264.09C43.674 264.09 43.2073 263.973 42.7873 263.74C42.374 263.507 42.0473 263.177 41.8073 262.75C41.574 262.317 41.4573 261.817 41.4573 261.25C41.4573 260.69 41.5773 260.197 41.8173 259.77C42.064 259.337 42.3973 259.007 42.8173 258.78C43.2373 258.547 43.7073 258.43 44.2273 258.43C44.7473 258.43 45.2173 258.547 45.6373 258.78C46.0573 259.007 46.3873 259.333 46.6273 259.76C46.874 260.187 46.9973 260.683 46.9973 261.25C46.9973 261.817 46.8707 262.317 46.6173 262.75C46.3707 263.177 46.034 263.507 45.6073 263.74C45.1807 263.973 44.7073 264.09 44.1873 264.09ZM44.1873 263.29C44.514 263.29 44.8207 263.213 45.1073 263.06C45.394 262.907 45.624 262.677 45.7973 262.37C45.9773 262.063 46.0673 261.69 46.0673 261.25C46.0673 260.81 45.9807 260.437 45.8073 260.13C45.634 259.823 45.4073 259.597 45.1273 259.45C44.8473 259.297 44.544 259.22 44.2173 259.22C43.884 259.22 43.5773 259.297 43.2973 259.45C43.024 259.597 42.804 259.823 42.6373 260.13C42.4707 260.437 42.3873 260.81 42.3873 261.25C42.3873 261.697 42.4673 262.073 42.6273 262.38C42.794 262.687 43.014 262.917 43.2873 263.07C43.5607 263.217 43.8607 263.29 44.1873 263.29ZM50.5838 264.09C50.0705 264.09 49.6038 263.973 49.1838 263.74C48.7705 263.507 48.4438 263.177 48.2038 262.75C47.9705 262.317 47.8538 261.817 47.8538 261.25C47.8538 260.69 47.9738 260.197 48.2138 259.77C48.4605 259.337 48.7938 259.007 49.2138 258.78C49.6338 258.547 50.1038 258.43 50.6238 258.43C51.1438 258.43 51.6138 258.547 52.0338 258.78C52.4538 259.007 52.7838 259.333 53.0238 259.76C53.2705 260.187 53.3938 260.683 53.3938 261.25C53.3938 261.817 53.2672 262.317 53.0138 262.75C52.7672 263.177 52.4305 263.507 52.0038 263.74C51.5772 263.973 51.1038 264.09 50.5838 264.09ZM50.5838 263.29C50.9105 263.29 51.2172 263.213 51.5038 263.06C51.7905 262.907 52.0205 262.677 52.1938 262.37C52.3738 262.063 52.4638 261.69 52.4638 261.25C52.4638 260.81 52.3772 260.437 52.2038 260.13C52.0305 259.823 51.8038 259.597 51.5238 259.45C51.2438 259.297 50.9405 259.22 50.6138 259.22C50.2805 259.22 49.9738 259.297 49.6938 259.45C49.4205 259.597 49.2005 259.823 49.0338 260.13C48.8672 260.437 48.7838 260.81 48.7838 261.25C48.7838 261.697 48.8638 262.073 49.0238 262.38C49.1905 262.687 49.4105 262.917 49.6838 263.07C49.9572 263.217 50.2572 263.29 50.5838 263.29ZM55.7003 259.27V262.5C55.7003 262.767 55.757 262.957 55.8703 263.07C55.9836 263.177 56.1803 263.23 56.4603 263.23H57.1303V264H56.3103C55.8036 264 55.4236 263.883 55.1703 263.65C54.917 263.417 54.7903 263.033 54.7903 262.5V259.27H54.0803V258.52H54.7903V257.14H55.7003V258.52H57.1303V259.27H55.7003ZM60.9529 258.42C61.3662 258.42 61.7396 258.51 62.0729 258.69C62.4062 258.863 62.6662 259.127 62.8529 259.48C63.0462 259.833 63.1429 260.263 63.1429 260.77V264H62.2429V260.9C62.2429 260.353 62.1062 259.937 61.8329 259.65C61.5596 259.357 61.1862 259.21 60.7129 259.21C60.2329 259.21 59.8496 259.36 59.5629 259.66C59.2829 259.96 59.1429 260.397 59.1429 260.97V264H58.2329V256.6H59.1429V259.3C59.3229 259.02 59.5696 258.803 59.8829 258.65C60.2029 258.497 60.5596 258.42 60.9529 258.42ZM65.5394 256.6V264H64.6294V256.6H65.5394ZM71.8103 258.52L68.5103 266.58H67.5703L68.6503 263.94L66.4403 258.52H67.4503L69.1703 262.96L70.8703 258.52H71.8103Z" fill="white"/>
<circle cx="207" cy="218.5" r="4.5" fill="white"/>
<path d="M222.719 214.66V223H221.351V214.66H222.719ZM227.851 216.28C228.371 216.28 228.835 216.388 229.243 216.604C229.659 216.82 229.983 217.14 230.215 217.564C230.447 217.988 230.563 218.5 230.563 219.1V223H229.207V219.304C229.207 218.712 229.059 218.26 228.763 217.948C228.467 217.628 228.063 217.468 227.551 217.468C227.039 217.468 226.631 217.628 226.327 217.948C226.031 218.26 225.883 218.712 225.883 219.304V223H224.515V216.388H225.883V217.144C226.107 216.872 226.391 216.66 226.735 216.508C227.087 216.356 227.459 216.28 227.851 216.28ZM240.813 214.66V215.776H238.593V223H237.225V215.776H234.993V214.66H240.813ZM245.619 216.28C246.123 216.28 246.571 216.388 246.963 216.604C247.363 216.82 247.675 217.14 247.899 217.564C248.131 217.988 248.247 218.5 248.247 219.1V223H246.891V219.304C246.891 218.712 246.743 218.26 246.447 217.948C246.151 217.628 245.747 217.468 245.235 217.468C244.723 217.468 244.315 217.628 244.011 217.948C243.715 218.26 243.567 218.712 243.567 219.304V223H242.199V214.12H243.567V217.156C243.799 216.876 244.091 216.66 244.443 216.508C244.803 216.356 245.195 216.28 245.619 216.28ZM256.052 219.532C256.052 219.78 256.036 220.004 256.004 220.204H250.952C250.992 220.732 251.188 221.156 251.54 221.476C251.892 221.796 252.324 221.956 252.836 221.956C253.572 221.956 254.092 221.648 254.396 221.032H255.872C255.672 221.64 255.308 222.14 254.78 222.532C254.26 222.916 253.612 223.108 252.836 223.108C252.204 223.108 251.636 222.968 251.132 222.688C250.636 222.4 250.244 222 249.956 221.488C249.676 220.968 249.536 220.368 249.536 219.688C249.536 219.008 249.672 218.412 249.944 217.9C250.224 217.38 250.612 216.98 251.108 216.7C251.612 216.42 252.188 216.28 252.836 216.28C253.46 216.28 254.016 216.416 254.504 216.688C254.992 216.96 255.372 217.344 255.644 217.84C255.916 218.328 256.052 218.892 256.052 219.532ZM254.624 219.1C254.616 218.596 254.436 218.192 254.084 217.888C253.732 217.584 253.296 217.432 252.776 217.432C252.304 217.432 251.9 217.584 251.564 217.888C251.228 218.184 251.028 218.588 250.964 219.1H254.624ZM266.347 217.144C266.347 217.568 266.247 217.968 266.047 218.344C265.847 218.72 265.527 219.028 265.087 219.268C264.647 219.5 264.083 219.616 263.395 219.616H261.883V223H260.515V214.66H263.395C264.035 214.66 264.575 214.772 265.015 214.996C265.463 215.212 265.795 215.508 266.011 215.884C266.235 216.26 266.347 216.68 266.347 217.144ZM263.395 218.5C263.915 218.5 264.303 218.384 264.559 218.152C264.815 217.912 264.943 217.576 264.943 217.144C264.943 216.232 264.427 215.776 263.395 215.776H261.883V218.5H263.395ZM269.02 217.348C269.22 217.012 269.484 216.752 269.812 216.568C270.148 216.376 270.544 216.28 271 216.28V217.696H270.652C270.116 217.696 269.708 217.832 269.428 218.104C269.156 218.376 269.02 218.848 269.02 219.52V223H267.652V216.388H269.02V217.348ZM275.125 223.108C274.501 223.108 273.937 222.968 273.433 222.688C272.929 222.4 272.533 222 272.245 221.488C271.957 220.968 271.813 220.368 271.813 219.688C271.813 219.016 271.961 218.42 272.257 217.9C272.553 217.38 272.957 216.98 273.469 216.7C273.981 216.42 274.553 216.28 275.185 216.28C275.817 216.28 276.389 216.42 276.901 216.7C277.413 216.98 277.817 217.38 278.113 217.9C278.409 218.42 278.557 219.016 278.557 219.688C278.557 220.36 278.405 220.956 278.101 221.476C277.797 221.996 277.381 222.4 276.853 222.688C276.333 222.968 275.757 223.108 275.125 223.108ZM275.125 221.92C275.477 221.92 275.805 221.836 276.109 221.668C276.421 221.5 276.673 221.248 276.865 220.912C277.057 220.576 277.153 220.168 277.153 219.688C277.153 219.208 277.061 218.804 276.877 218.476C276.693 218.14 276.449 217.888 276.145 217.72C275.841 217.552 275.513 217.468 275.161 217.468C274.809 217.468 274.481 217.552 274.177 217.72C273.881 217.888 273.645 218.14 273.469 218.476C273.293 218.804 273.205 219.208 273.205 219.688C273.205 220.4 273.385 220.952 273.745 221.344C274.113 221.728 274.573 221.92 275.125 221.92ZM279.454 219.688C279.454 219.008 279.59 218.412 279.862 217.9C280.142 217.38 280.526 216.98 281.014 216.7C281.502 216.42 282.062 216.28 282.694 216.28C283.494 216.28 284.154 216.472 284.674 216.856C285.202 217.232 285.558 217.772 285.742 218.476H284.266C284.146 218.148 283.954 217.892 283.69 217.708C283.426 217.524 283.094 217.432 282.694 217.432C282.134 217.432 281.686 217.632 281.35 218.032C281.022 218.424 280.858 218.976 280.858 219.688C280.858 220.4 281.022 220.956 281.35 221.356C281.686 221.756 282.134 221.956 282.694 221.956C283.486 221.956 284.01 221.608 284.266 220.912H285.742C285.55 221.584 285.19 222.12 284.662 222.52C284.134 222.912 283.478 223.108 282.694 223.108C282.062 223.108 281.502 222.968 281.014 222.688C280.526 222.4 280.142 222 279.862 221.488C279.59 220.968 279.454 220.368 279.454 219.688ZM293.165 219.532C293.165 219.78 293.149 220.004 293.117 220.204H288.065C288.105 220.732 288.301 221.156 288.653 221.476C289.005 221.796 289.437 221.956 289.949 221.956C290.685 221.956 291.205 221.648 291.509 221.032H292.985C292.785 221.64 292.421 222.14 291.893 222.532C291.373 222.916 290.725 223.108 289.949 223.108C289.317 223.108 288.749 222.968 288.245 222.688C287.749 222.4 287.357 222 287.069 221.488C286.789 220.968 286.649 220.368 286.649 219.688C286.649 219.008 286.785 218.412 287.057 217.9C287.337 217.38 287.725 216.98 288.221 216.7C288.725 216.42 289.301 216.28 289.949 216.28C290.573 216.28 291.129 216.416 291.617 216.688C292.105 216.96 292.485 217.344 292.757 217.84C293.029 218.328 293.165 218.892 293.165 219.532ZM291.737 219.1C291.729 218.596 291.549 218.192 291.197 217.888C290.845 217.584 290.409 217.432 289.889 217.432C289.417 217.432 289.013 217.584 288.677 217.888C288.341 218.184 288.141 218.588 288.077 219.1H291.737ZM296.911 223.108C296.391 223.108 295.923 223.016 295.507 222.832C295.099 222.64 294.775 222.384 294.535 222.064C294.295 221.736 294.167 221.372 294.151 220.972H295.567C295.591 221.252 295.723 221.488 295.963 221.68C296.211 221.864 296.519 221.956 296.887 221.956C297.271 221.956 297.567 221.884 297.775 221.74C297.991 221.588 298.099 221.396 298.099 221.164C298.099 220.916 297.979 220.732 297.739 220.612C297.507 220.492 297.135 220.36 296.623 220.216C296.127 220.08 295.723 219.948 295.411 219.82C295.099 219.692 294.827 219.496 294.595 219.232C294.371 218.968 294.259 218.62 294.259 218.188C294.259 217.836 294.363 217.516 294.571 217.228C294.779 216.932 295.075 216.7 295.459 216.532C295.851 216.364 296.299 216.28 296.803 216.28C297.555 216.28 298.159 216.472 298.615 216.856C299.079 217.232 299.327 217.748 299.359 218.404H297.991C297.967 218.108 297.847 217.872 297.631 217.696C297.415 217.52 297.123 217.432 296.755 217.432C296.395 217.432 296.119 217.5 295.927 217.636C295.735 217.772 295.639 217.952 295.639 218.176C295.639 218.352 295.703 218.5 295.831 218.62C295.959 218.74 296.115 218.836 296.299 218.908C296.483 218.972 296.755 219.056 297.115 219.16C297.595 219.288 297.987 219.42 298.291 219.556C298.603 219.684 298.871 219.876 299.095 220.132C299.319 220.388 299.435 220.728 299.443 221.152C299.443 221.528 299.339 221.864 299.131 222.16C298.923 222.456 298.627 222.688 298.243 222.856C297.867 223.024 297.423 223.108 296.911 223.108ZM303.321 223.108C302.801 223.108 302.333 223.016 301.917 222.832C301.509 222.64 301.185 222.384 300.945 222.064C300.705 221.736 300.577 221.372 300.561 220.972H301.977C302.001 221.252 302.133 221.488 302.373 221.68C302.621 221.864 302.929 221.956 303.297 221.956C303.681 221.956 303.977 221.884 304.185 221.74C304.401 221.588 304.509 221.396 304.509 221.164C304.509 220.916 304.389 220.732 304.149 220.612C303.917 220.492 303.545 220.36 303.033 220.216C302.537 220.08 302.133 219.948 301.821 219.82C301.509 219.692 301.237 219.496 301.005 219.232C300.781 218.968 300.669 218.62 300.669 218.188C300.669 217.836 300.773 217.516 300.981 217.228C301.189 216.932 301.485 216.7 301.869 216.532C302.261 216.364 302.709 216.28 303.213 216.28C303.965 216.28 304.569 216.472 305.025 216.856C305.489 217.232 305.737 217.748 305.769 218.404H304.401C304.377 218.108 304.257 217.872 304.041 217.696C303.825 217.52 303.533 217.432 303.165 217.432C302.805 217.432 302.529 217.5 302.337 217.636C302.145 217.772 302.049 217.952 302.049 218.176C302.049 218.352 302.113 218.5 302.241 218.62C302.369 218.74 302.525 218.836 302.709 218.908C302.893 218.972 303.165 219.056 303.525 219.16C304.005 219.288 304.397 219.42 304.701 219.556C305.013 219.684 305.281 219.876 305.505 220.132C305.729 220.388 305.845 220.728 305.853 221.152C305.853 221.528 305.749 221.864 305.541 222.16C305.333 222.456 305.037 222.688 304.653 222.856C304.277 223.024 303.833 223.108 303.321 223.108Z" fill="white"/>
<path opacity="0.6" d="M229.03 241.03L227.01 248H225.99L224.37 242.39L222.69 248L221.68 248.01L219.73 241.03H220.7L222.22 246.94L223.9 241.03H224.92L226.52 246.92L228.05 241.03H229.03ZM229.686 245.24C229.686 244.68 229.799 244.19 230.026 243.77C230.253 243.343 230.563 243.013 230.956 242.78C231.356 242.547 231.799 242.43 232.286 242.43C232.766 242.43 233.183 242.533 233.536 242.74C233.889 242.947 234.153 243.207 234.326 243.52V242.52H235.246V248H234.326V246.98C234.146 247.3 233.876 247.567 233.516 247.78C233.163 247.987 232.749 248.09 232.276 248.09C231.789 248.09 231.349 247.97 230.956 247.73C230.563 247.49 230.253 247.153 230.026 246.72C229.799 246.287 229.686 245.793 229.686 245.24ZM234.326 245.25C234.326 244.837 234.243 244.477 234.076 244.17C233.909 243.863 233.683 243.63 233.396 243.47C233.116 243.303 232.806 243.22 232.466 243.22C232.126 243.22 231.816 243.3 231.536 243.46C231.256 243.62 231.033 243.853 230.866 244.16C230.699 244.467 230.616 244.827 230.616 245.24C230.616 245.66 230.699 246.027 230.866 246.34C231.033 246.647 231.256 246.883 231.536 247.05C231.816 247.21 232.126 247.29 232.466 247.29C232.806 247.29 233.116 247.21 233.396 247.05C233.683 246.883 233.909 246.647 234.076 246.34C234.243 246.027 234.326 245.663 234.326 245.25ZM237.254 241.63C237.08 241.63 236.934 241.57 236.814 241.45C236.694 241.33 236.634 241.183 236.634 241.01C236.634 240.837 236.694 240.69 236.814 240.57C236.934 240.45 237.08 240.39 237.254 240.39C237.42 240.39 237.56 240.45 237.674 240.57C237.794 240.69 237.854 240.837 237.854 241.01C237.854 241.183 237.794 241.33 237.674 241.45C237.56 241.57 237.42 241.63 237.254 241.63ZM237.694 242.52V248H236.784V242.52H237.694ZM240.355 243.27V246.5C240.355 246.767 240.411 246.957 240.525 247.07C240.638 247.177 240.835 247.23 241.115 247.23H241.785V248H240.965C240.458 248 240.078 247.883 239.825 247.65C239.571 247.417 239.445 247.033 239.445 246.5V243.27H238.735V242.52H239.445V241.14H240.355V242.52H241.785V243.27H240.355ZM243.357 241.63C243.184 241.63 243.037 241.57 242.917 241.45C242.797 241.33 242.737 241.183 242.737 241.01C242.737 240.837 242.797 240.69 242.917 240.57C243.037 240.45 243.184 240.39 243.357 240.39C243.524 240.39 243.664 240.45 243.777 240.57C243.897 240.69 243.957 240.837 243.957 241.01C243.957 241.183 243.897 241.33 243.777 241.45C243.664 241.57 243.524 241.63 243.357 241.63ZM243.797 242.52V248H242.887V242.52H243.797ZM248.018 242.42C248.685 242.42 249.225 242.623 249.638 243.03C250.051 243.43 250.258 244.01 250.258 244.77V248H249.358V244.9C249.358 244.353 249.221 243.937 248.948 243.65C248.675 243.357 248.301 243.21 247.828 243.21C247.348 243.21 246.965 243.36 246.678 243.66C246.398 243.96 246.258 244.397 246.258 244.97V248H245.348V242.52H246.258V243.3C246.438 243.02 246.681 242.803 246.988 242.65C247.301 242.497 247.645 242.42 248.018 242.42ZM254.005 242.43C254.478 242.43 254.891 242.533 255.245 242.74C255.605 242.947 255.871 243.207 256.045 243.52V242.52H256.965V248.12C256.965 248.62 256.858 249.063 256.645 249.45C256.431 249.843 256.125 250.15 255.725 250.37C255.331 250.59 254.871 250.7 254.345 250.7C253.625 250.7 253.025 250.53 252.545 250.19C252.065 249.85 251.781 249.387 251.695 248.8H252.595C252.695 249.133 252.901 249.4 253.215 249.6C253.528 249.807 253.905 249.91 254.345 249.91C254.845 249.91 255.251 249.753 255.565 249.44C255.885 249.127 256.045 248.687 256.045 248.12V246.97C255.865 247.29 255.598 247.557 255.245 247.77C254.891 247.983 254.478 248.09 254.005 248.09C253.518 248.09 253.075 247.97 252.675 247.73C252.281 247.49 251.971 247.153 251.745 246.72C251.518 246.287 251.405 245.793 251.405 245.24C251.405 244.68 251.518 244.19 251.745 243.77C251.971 243.343 252.281 243.013 252.675 242.78C253.075 242.547 253.518 242.43 254.005 242.43ZM256.045 245.25C256.045 244.837 255.961 244.477 255.795 244.17C255.628 243.863 255.401 243.63 255.115 243.47C254.835 243.303 254.525 243.22 254.185 243.22C253.845 243.22 253.535 243.3 253.255 243.46C252.975 243.62 252.751 243.853 252.585 244.16C252.418 244.467 252.335 244.827 252.335 245.24C252.335 245.66 252.418 246.027 252.585 246.34C252.751 246.647 252.975 246.883 253.255 247.05C253.535 247.21 253.845 247.29 254.185 247.29C254.525 247.29 254.835 247.21 255.115 247.05C255.401 246.883 255.628 246.647 255.795 246.34C255.961 246.027 256.045 245.663 256.045 245.25ZM261.638 241.63C261.465 241.63 261.318 241.57 261.198 241.45C261.078 241.33 261.018 241.183 261.018 241.01C261.018 240.837 261.078 240.69 261.198 240.57C261.318 240.45 261.465 240.39 261.638 240.39C261.805 240.39 261.945 240.45 262.058 240.57C262.178 240.69 262.238 240.837 262.238 241.01C262.238 241.183 262.178 241.33 262.058 241.45C261.945 241.57 261.805 241.63 261.638 241.63ZM262.078 242.52V248H261.168V242.52H262.078ZM266.299 242.42C266.966 242.42 267.506 242.623 267.919 243.03C268.333 243.43 268.539 244.01 268.539 244.77V248H267.639V244.9C267.639 244.353 267.503 243.937 267.229 243.65C266.956 243.357 266.583 243.21 266.109 243.21C265.629 243.21 265.246 243.36 264.959 243.66C264.679 243.96 264.539 244.397 264.539 244.97V248H263.629V242.52H264.539V243.3C264.719 243.02 264.963 242.803 265.269 242.65C265.583 242.497 265.926 242.42 266.299 242.42ZM273.802 243.27V246.5C273.802 246.767 273.859 246.957 273.972 247.07C274.085 247.177 274.282 247.23 274.562 247.23H275.232V248H274.412C273.905 248 273.525 247.883 273.272 247.65C273.019 247.417 272.892 247.033 272.892 246.5V243.27H272.182V242.52H272.892V241.14H273.802V242.52H275.232V243.27H273.802ZM275.994 245.24C275.994 244.68 276.108 244.19 276.334 243.77C276.561 243.343 276.871 243.013 277.264 242.78C277.664 242.547 278.108 242.43 278.594 242.43C279.074 242.43 279.491 242.533 279.844 242.74C280.198 242.947 280.461 243.207 280.634 243.52V242.52H281.554V248H280.634V246.98C280.454 247.3 280.184 247.567 279.824 247.78C279.471 247.987 279.058 248.09 278.584 248.09C278.098 248.09 277.658 247.97 277.264 247.73C276.871 247.49 276.561 247.153 276.334 246.72C276.108 246.287 275.994 245.793 275.994 245.24ZM280.634 245.25C280.634 244.837 280.551 244.477 280.384 244.17C280.218 243.863 279.991 243.63 279.704 243.47C279.424 243.303 279.114 243.22 278.774 243.22C278.434 243.22 278.124 243.3 277.844 243.46C277.564 243.62 277.341 243.853 277.174 244.16C277.008 244.467 276.924 244.827 276.924 245.24C276.924 245.66 277.008 246.027 277.174 246.34C277.341 246.647 277.564 246.883 277.844 247.05C278.124 247.21 278.434 247.29 278.774 247.29C279.114 247.29 279.424 247.21 279.704 247.05C279.991 246.883 280.218 246.647 280.384 246.34C280.551 246.027 280.634 245.663 280.634 245.25ZM284.002 243.41C284.162 243.097 284.389 242.853 284.682 242.68C284.982 242.507 285.346 242.42 285.772 242.42V243.36H285.532C284.512 243.36 284.002 243.913 284.002 245.02V248H283.092V242.52H284.002V243.41ZM289.083 242.43C289.556 242.43 289.969 242.533 290.323 242.74C290.683 242.947 290.949 243.207 291.123 243.52V242.52H292.043V248.12C292.043 248.62 291.936 249.063 291.723 249.45C291.509 249.843 291.203 250.15 290.803 250.37C290.409 250.59 289.949 250.7 289.423 250.7C288.703 250.7 288.103 250.53 287.623 250.19C287.143 249.85 286.859 249.387 286.773 248.8H287.673C287.773 249.133 287.979 249.4 288.293 249.6C288.606 249.807 288.983 249.91 289.423 249.91C289.923 249.91 290.329 249.753 290.643 249.44C290.963 249.127 291.123 248.687 291.123 248.12V246.97C290.943 247.29 290.676 247.557 290.323 247.77C289.969 247.983 289.556 248.09 289.083 248.09C288.596 248.09 288.153 247.97 287.753 247.73C287.359 247.49 287.049 247.153 286.823 246.72C286.596 246.287 286.483 245.793 286.483 245.24C286.483 244.68 286.596 244.19 286.823 243.77C287.049 243.343 287.359 243.013 287.753 242.78C288.153 242.547 288.596 242.43 289.083 242.43ZM291.123 245.25C291.123 244.837 291.039 244.477 290.873 244.17C290.706 243.863 290.479 243.63 290.193 243.47C289.913 243.303 289.603 243.22 289.263 243.22C288.923 243.22 288.613 243.3 288.333 243.46C288.053 243.62 287.829 243.853 287.663 244.16C287.496 244.467 287.413 244.827 287.413 245.24C287.413 245.66 287.496 246.027 287.663 246.34C287.829 246.647 288.053 246.883 288.333 247.05C288.613 247.21 288.923 247.29 289.263 247.29C289.603 247.29 289.913 247.21 290.193 247.05C290.479 246.883 290.706 246.647 290.873 246.34C291.039 246.027 291.123 245.663 291.123 245.25ZM298.581 245.05C298.581 245.223 298.571 245.407 298.551 245.6H294.171C294.204 246.14 294.387 246.563 294.721 246.87C295.061 247.17 295.471 247.32 295.951 247.32C296.344 247.32 296.671 247.23 296.931 247.05C297.197 246.863 297.384 246.617 297.491 246.31H298.471C298.324 246.837 298.031 247.267 297.591 247.6C297.151 247.927 296.604 248.09 295.951 248.09C295.431 248.09 294.964 247.973 294.551 247.74C294.144 247.507 293.824 247.177 293.591 246.75C293.357 246.317 293.241 245.817 293.241 245.25C293.241 244.683 293.354 244.187 293.581 243.76C293.807 243.333 294.124 243.007 294.531 242.78C294.944 242.547 295.417 242.43 295.951 242.43C296.471 242.43 296.931 242.543 297.331 242.77C297.731 242.997 298.037 243.31 298.251 243.71C298.471 244.103 298.581 244.55 298.581 245.05ZM297.641 244.86C297.641 244.513 297.564 244.217 297.411 243.97C297.257 243.717 297.047 243.527 296.781 243.4C296.521 243.267 296.231 243.2 295.911 243.2C295.451 243.2 295.057 243.347 294.731 243.64C294.411 243.933 294.227 244.34 294.181 244.86H297.641ZM300.892 243.27V246.5C300.892 246.767 300.948 246.957 301.062 247.07C301.175 247.177 301.372 247.23 301.652 247.23H302.322V248H301.502C300.995 248 300.615 247.883 300.362 247.65C300.108 247.417 299.982 247.033 299.982 246.5V243.27H299.272V242.52H299.982V241.14H300.892V242.52H302.322V243.27H300.892ZM221.18 258.53C221.36 258.217 221.627 257.957 221.98 257.75C222.34 257.537 222.757 257.43 223.23 257.43C223.717 257.43 224.157 257.547 224.55 257.78C224.95 258.013 225.263 258.343 225.49 258.77C225.717 259.19 225.83 259.68 225.83 260.24C225.83 260.793 225.717 261.287 225.49 261.72C225.263 262.153 224.95 262.49 224.55 262.73C224.157 262.97 223.717 263.09 223.23 263.09C222.763 263.09 222.35 262.987 221.99 262.78C221.637 262.567 221.367 262.303 221.18 261.99V265.6H220.27V257.52H221.18V258.53ZM224.9 260.24C224.9 259.827 224.817 259.467 224.65 259.16C224.483 258.853 224.257 258.62 223.97 258.46C223.69 258.3 223.38 258.22 223.04 258.22C222.707 258.22 222.397 258.303 222.11 258.47C221.83 258.63 221.603 258.867 221.43 259.18C221.263 259.487 221.18 259.843 221.18 260.25C221.18 260.663 221.263 261.027 221.43 261.34C221.603 261.647 221.83 261.883 222.11 262.05C222.397 262.21 222.707 262.29 223.04 262.29C223.38 262.29 223.69 262.21 223.97 262.05C224.257 261.883 224.483 261.647 224.65 261.34C224.817 261.027 224.9 260.66 224.9 260.24ZM227.938 258.41C228.098 258.097 228.324 257.853 228.618 257.68C228.918 257.507 229.281 257.42 229.708 257.42V258.36H229.468C228.448 258.36 227.938 258.913 227.938 260.02V263H227.028V257.52H227.938V258.41ZM233.148 263.09C232.635 263.09 232.168 262.973 231.748 262.74C231.335 262.507 231.008 262.177 230.768 261.75C230.535 261.317 230.418 260.817 230.418 260.25C230.418 259.69 230.538 259.197 230.778 258.77C231.025 258.337 231.358 258.007 231.778 257.78C232.198 257.547 232.668 257.43 233.188 257.43C233.708 257.43 234.178 257.547 234.598 257.78C235.018 258.007 235.348 258.333 235.588 258.76C235.835 259.187 235.958 259.683 235.958 260.25C235.958 260.817 235.832 261.317 235.578 261.75C235.332 262.177 234.995 262.507 234.568 262.74C234.142 262.973 233.668 263.09 233.148 263.09ZM233.148 262.29C233.475 262.29 233.782 262.213 234.068 262.06C234.355 261.907 234.585 261.677 234.758 261.37C234.938 261.063 235.028 260.69 235.028 260.25C235.028 259.81 234.942 259.437 234.768 259.13C234.595 258.823 234.368 258.597 234.088 258.45C233.808 258.297 233.505 258.22 233.178 258.22C232.845 258.22 232.538 258.297 232.258 258.45C231.985 258.597 231.765 258.823 231.598 259.13C231.432 259.437 231.348 259.81 231.348 260.25C231.348 260.697 231.428 261.073 231.588 261.38C231.755 261.687 231.975 261.917 232.248 262.07C232.522 262.217 232.822 262.29 233.148 262.29ZM236.815 260.25C236.815 259.683 236.928 259.19 237.155 258.77C237.381 258.343 237.695 258.013 238.095 257.78C238.501 257.547 238.965 257.43 239.485 257.43C240.158 257.43 240.711 257.593 241.145 257.92C241.585 258.247 241.875 258.7 242.015 259.28H241.035C240.941 258.947 240.758 258.683 240.485 258.49C240.218 258.297 239.885 258.2 239.485 258.2C238.965 258.2 238.545 258.38 238.225 258.74C237.905 259.093 237.745 259.597 237.745 260.25C237.745 260.91 237.905 261.42 238.225 261.78C238.545 262.14 238.965 262.32 239.485 262.32C239.885 262.32 240.218 262.227 240.485 262.04C240.751 261.853 240.935 261.587 241.035 261.24H242.015C241.868 261.8 241.575 262.25 241.135 262.59C240.695 262.923 240.145 263.09 239.485 263.09C238.965 263.09 238.501 262.973 238.095 262.74C237.695 262.507 237.381 262.177 237.155 261.75C236.928 261.323 236.815 260.823 236.815 260.25ZM248.229 260.05C248.229 260.223 248.219 260.407 248.199 260.6H243.819C243.852 261.14 244.036 261.563 244.369 261.87C244.709 262.17 245.119 262.32 245.599 262.32C245.992 262.32 246.319 262.23 246.579 262.05C246.846 261.863 247.032 261.617 247.139 261.31H248.119C247.972 261.837 247.679 262.267 247.239 262.6C246.799 262.927 246.252 263.09 245.599 263.09C245.079 263.09 244.612 262.973 244.199 262.74C243.792 262.507 243.472 262.177 243.239 261.75C243.006 261.317 242.889 260.817 242.889 260.25C242.889 259.683 243.002 259.187 243.229 258.76C243.456 258.333 243.772 258.007 244.179 257.78C244.592 257.547 245.066 257.43 245.599 257.43C246.119 257.43 246.579 257.543 246.979 257.77C247.379 257.997 247.686 258.31 247.899 258.71C248.119 259.103 248.229 259.55 248.229 260.05ZM247.289 259.86C247.289 259.513 247.212 259.217 247.059 258.97C246.906 258.717 246.696 258.527 246.429 258.4C246.169 258.267 245.879 258.2 245.559 258.2C245.099 258.2 244.706 258.347 244.379 258.64C244.059 258.933 243.876 259.34 243.829 259.86H247.289ZM251.37 263.09C250.95 263.09 250.573 263.02 250.24 262.88C249.907 262.733 249.643 262.533 249.45 262.28C249.257 262.02 249.15 261.723 249.13 261.39H250.07C250.097 261.663 250.223 261.887 250.45 262.06C250.683 262.233 250.987 262.32 251.36 262.32C251.707 262.32 251.98 262.243 252.18 262.09C252.38 261.937 252.48 261.743 252.48 261.51C252.48 261.27 252.373 261.093 252.16 260.98C251.947 260.86 251.617 260.743 251.17 260.63C250.763 260.523 250.43 260.417 250.17 260.31C249.917 260.197 249.697 260.033 249.51 259.82C249.33 259.6 249.24 259.313 249.24 258.96C249.24 258.68 249.323 258.423 249.49 258.19C249.657 257.957 249.893 257.773 250.2 257.64C250.507 257.5 250.857 257.43 251.25 257.43C251.857 257.43 252.347 257.583 252.72 257.89C253.093 258.197 253.293 258.617 253.32 259.15H252.41C252.39 258.863 252.273 258.633 252.06 258.46C251.853 258.287 251.573 258.2 251.22 258.2C250.893 258.2 250.633 258.27 250.44 258.41C250.247 258.55 250.15 258.733 250.15 258.96C250.15 259.14 250.207 259.29 250.32 259.41C250.44 259.523 250.587 259.617 250.76 259.69C250.94 259.757 251.187 259.833 251.5 259.92C251.893 260.027 252.213 260.133 252.46 260.24C252.707 260.34 252.917 260.493 253.09 260.7C253.27 260.907 253.363 261.177 253.37 261.51C253.37 261.81 253.287 262.08 253.12 262.32C252.953 262.56 252.717 262.75 252.41 262.89C252.11 263.023 251.763 263.09 251.37 263.09ZM256.595 263.09C256.175 263.09 255.798 263.02 255.465 262.88C255.131 262.733 254.868 262.533 254.675 262.28C254.481 262.02 254.375 261.723 254.355 261.39H255.295C255.321 261.663 255.448 261.887 255.675 262.06C255.908 262.233 256.211 262.32 256.585 262.32C256.931 262.32 257.205 262.243 257.405 262.09C257.605 261.937 257.705 261.743 257.705 261.51C257.705 261.27 257.598 261.093 257.385 260.98C257.171 260.86 256.841 260.743 256.395 260.63C255.988 260.523 255.655 260.417 255.395 260.31C255.141 260.197 254.921 260.033 254.735 259.82C254.555 259.6 254.465 259.313 254.465 258.96C254.465 258.68 254.548 258.423 254.715 258.19C254.881 257.957 255.118 257.773 255.425 257.64C255.731 257.5 256.081 257.43 256.475 257.43C257.081 257.43 257.571 257.583 257.945 257.89C258.318 258.197 258.518 258.617 258.545 259.15H257.635C257.615 258.863 257.498 258.633 257.285 258.46C257.078 258.287 256.798 258.2 256.445 258.2C256.118 258.2 255.858 258.27 255.665 258.41C255.471 258.55 255.375 258.733 255.375 258.96C255.375 259.14 255.431 259.29 255.545 259.41C255.665 259.523 255.811 259.617 255.985 259.69C256.165 259.757 256.411 259.833 256.725 259.92C257.118 260.027 257.438 260.133 257.685 260.24C257.931 260.34 258.141 260.493 258.315 260.7C258.495 260.907 258.588 261.177 258.595 261.51C258.595 261.81 258.511 262.08 258.345 262.32C258.178 262.56 257.941 262.75 257.635 262.89C257.335 263.023 256.988 263.09 256.595 263.09Z" fill="white"/>
<defs>
<filter id="filter0_d_0_1" x="76.3687" y="34.869" width="163.512" height="172.907" filterUnits="userSpaceOnUse" color-interpolation-filters="sRGB">
<feFlood flood-opacity="0" result="BackgroundImageFix"/>
<feColorMatrix in="SourceAlpha" type="matrix" values="0 0 0 0 0 0 0 0 0 0 0 0 0 0 0 0 0 0 127 0" result="hardAlpha"/>
<feOffset dy="4"/>
<feGaussianBlur stdDeviation="12"/>
<feComposite in2="hardAlpha" operator="out"/>
<feColorMatrix type="matrix" values="0 0 0 0 0.309804 0 0 0 0 0.247059 0 0 0 0 0.568627 0 0 0 0.26 0"/>
<feBlend mode="normal" in2="BackgroundImageFix" result="effect1_dropShadow_0_1"/>
<feBlend mode="normal" in="SourceGraphic" in2="effect1_dropShadow_0_1" result="shape"/>
</filter>
<filter id="filter1_d_0_1" x="0.5" y="208" width="25" height="25" filterUnits="userSpaceOnUse" color-interpolation-filters="sRGB">
<feFlood flood-opacity="0" result="BackgroundImageFix"/>
<feColorMatrix in="SourceAlpha" type="matrix" values="0 0 0 0 0 0 0 0 0 0 0 0 0 0 0 0 0 0 127 0" result="hardAlpha"/>
<feOffset dy="2"/>
<feGaussianBlur stdDeviation="4"/>
<feComposite in2="hardAlpha" operator="out"/>
<feColorMatrix type="matrix" values="0 0 0 0 0.309804 0 0 0 0 0.247059 0 0 0 0 0.568627 0 0 0 0.26 0"/>
<feBlend mode="normal" in2="BackgroundImageFix" result="effect1_dropShadow_0_1"/>
<feBlend mode="normal" in="SourceGraphic" in2="effect1_dropShadow_0_1" result="shape"/>
</filter>
<radialGradient id="paint0_diamond_0_1" cx="0" cy="0" r="1" gradientUnits="userSpaceOnUse" gradientTransform="translate(204.5 65.5) rotate(112.966) scale(178.119 498.723)">
<stop stop-color="#8A40FC"/>
<stop offset="0.537438" stop-color="#D577F3"/>
<stop offset="0.869792" stop-color="#FA9BC4"/>
</radialGradient>
<radialGradient id="paint1_diamond_0_1" cx="0" cy="0" r="1" gradientUnits="userSpaceOnUse" gradientTransform="translate(16.0031 214.766) rotate(161.364) scale(17.9439 50.242)">
<stop stop-color="#8A40FC"/>
<stop offset="0.428495" stop-color="#D577F3"/>
<stop offset="0.869792" stop-color="#FA9BC4"/>
</radialGradient>
</defs>
</svg>
