<svg width="331" height="257" viewBox="0 0 340 257" fill="none" xmlns="http://www.w3.org/2000/svg">
<path d="M11.298 240.77V250.5H9.702V243.836L6.734 250.5H5.628L2.646 243.836V250.5H1.05V240.77H2.772L6.188 248.4L9.59 240.77H11.298ZM16.7417 250.626C16.0137 250.626 15.3557 250.463 14.7677 250.136C14.1797 249.8 13.7177 249.333 13.3817 248.736C13.0457 248.129 12.8777 247.429 12.8777 246.636C12.8777 245.852 13.0504 245.157 13.3957 244.55C13.741 243.943 14.2124 243.477 14.8097 243.15C15.407 242.823 16.0744 242.66 16.8117 242.66C17.549 242.66 18.2164 242.823 18.8137 243.15C19.411 243.477 19.8824 243.943 20.2277 244.55C20.573 245.157 20.7457 245.852 20.7457 246.636C20.7457 247.42 20.5684 248.115 20.2137 248.722C19.859 249.329 19.3737 249.8 18.7577 250.136C18.151 250.463 17.479 250.626 16.7417 250.626ZM16.7417 249.24C17.1524 249.24 17.535 249.142 17.8897 248.946C18.2537 248.75 18.5477 248.456 18.7717 248.064C18.9957 247.672 19.1077 247.196 19.1077 246.636C19.1077 246.076 19.0004 245.605 18.7857 245.222C18.571 244.83 18.2864 244.536 17.9317 244.34C17.577 244.144 17.1944 244.046 16.7837 244.046C16.373 244.046 15.9904 244.144 15.6357 244.34C15.2904 244.536 15.015 244.83 14.8097 245.222C14.6044 245.605 14.5017 246.076 14.5017 246.636C14.5017 247.467 14.7117 248.111 15.1317 248.568C15.561 249.016 16.0977 249.24 16.7417 249.24ZM26.2154 242.66C26.8221 242.66 27.3634 242.786 27.8394 243.038C28.3248 243.29 28.7028 243.663 28.9734 244.158C29.2441 244.653 29.3794 245.25 29.3794 245.95V250.5H27.7974V246.188C27.7974 245.497 27.6248 244.97 27.2794 244.606C26.9341 244.233 26.4628 244.046 25.8654 244.046C25.2681 244.046 24.7921 244.233 24.4374 244.606C24.0921 244.97 23.9194 245.497 23.9194 246.188V250.5H22.3234V242.786H23.9194V243.668C24.1808 243.351 24.5121 243.103 24.9134 242.926C25.3241 242.749 25.7581 242.66 26.2154 242.66Z" fill="white"/>
<path d="M62.336 240.77V242.072H59.746V250.5H58.15V242.072H55.546V240.77H62.336ZM70.9383 242.786V250.5H69.3423V249.59C69.0903 249.907 68.759 250.159 68.3483 250.346C67.947 250.523 67.5177 250.612 67.0603 250.612C66.4537 250.612 65.9077 250.486 65.4223 250.234C64.9463 249.982 64.5683 249.609 64.2883 249.114C64.0177 248.619 63.8823 248.022 63.8823 247.322V242.786H65.4643V247.084C65.4643 247.775 65.637 248.307 65.9823 248.68C66.3277 249.044 66.799 249.226 67.3963 249.226C67.9937 249.226 68.465 249.044 68.8103 248.68C69.165 248.307 69.3423 247.775 69.3423 247.084V242.786H70.9383ZM80.1141 246.454C80.1141 246.743 80.0955 247.005 80.0581 247.238H74.1641C74.2108 247.854 74.4395 248.349 74.8501 248.722C75.2608 249.095 75.7648 249.282 76.3621 249.282C77.2208 249.282 77.8275 248.923 78.1821 248.204H79.9041C79.6708 248.913 79.2461 249.497 78.6301 249.954C78.0235 250.402 77.2675 250.626 76.3621 250.626C75.6248 250.626 74.9621 250.463 74.3741 250.136C73.7955 249.8 73.3381 249.333 73.0021 248.736C72.6755 248.129 72.5121 247.429 72.5121 246.636C72.5121 245.843 72.6708 245.147 72.9881 244.55C73.3148 243.943 73.7675 243.477 74.3461 243.15C74.9341 242.823 75.6061 242.66 76.3621 242.66C77.0901 242.66 77.7388 242.819 78.3081 243.136C78.8775 243.453 79.3208 243.901 79.6381 244.48C79.9555 245.049 80.1141 245.707 80.1141 246.454ZM78.4481 245.95C78.4388 245.362 78.2288 244.891 77.8181 244.536C77.4075 244.181 76.8988 244.004 76.2921 244.004C75.7415 244.004 75.2701 244.181 74.8781 244.536C74.4861 244.881 74.2528 245.353 74.1781 245.95H78.4481Z" fill="white" fill-opacity="0.45"/>
<path d="M118.72 240.77L115.836 250.5H114.03L111.986 243.136L109.816 250.5L108.024 250.514L105.266 240.77H106.96L108.976 248.694L111.16 240.77H112.952L114.982 248.652L117.012 240.77H118.72ZM127.106 246.454C127.106 246.743 127.088 247.005 127.05 247.238H121.156C121.203 247.854 121.432 248.349 121.842 248.722C122.253 249.095 122.757 249.282 123.354 249.282C124.213 249.282 124.82 248.923 125.174 248.204H126.896C126.663 248.913 126.238 249.497 125.622 249.954C125.016 250.402 124.26 250.626 123.354 250.626C122.617 250.626 121.954 250.463 121.366 250.136C120.788 249.8 120.33 249.333 119.994 248.736C119.668 248.129 119.504 247.429 119.504 246.636C119.504 245.843 119.663 245.147 119.98 244.55C120.307 243.943 120.76 243.477 121.338 243.15C121.926 242.823 122.598 242.66 123.354 242.66C124.082 242.66 124.731 242.819 125.3 243.136C125.87 243.453 126.313 243.901 126.63 244.48C126.948 245.049 127.106 245.707 127.106 246.454ZM125.44 245.95C125.431 245.362 125.221 244.891 124.81 244.536C124.4 244.181 123.891 244.004 123.284 244.004C122.734 244.004 122.262 244.181 121.87 244.536C121.478 244.881 121.245 245.353 121.17 245.95H125.44ZM128.145 246.608C128.145 245.833 128.304 245.147 128.621 244.55C128.948 243.953 129.386 243.491 129.937 243.164C130.497 242.828 131.118 242.66 131.799 242.66C132.303 242.66 132.798 242.772 133.283 242.996C133.778 243.211 134.17 243.5 134.459 243.864V240.14H136.069V250.5H134.459V249.338C134.198 249.711 133.834 250.019 133.367 250.262C132.91 250.505 132.382 250.626 131.785 250.626C131.113 250.626 130.497 250.458 129.937 250.122C129.386 249.777 128.948 249.301 128.621 248.694C128.304 248.078 128.145 247.383 128.145 246.608ZM134.459 246.636C134.459 246.104 134.347 245.642 134.123 245.25C133.908 244.858 133.624 244.559 133.269 244.354C132.914 244.149 132.532 244.046 132.121 244.046C131.71 244.046 131.328 244.149 130.973 244.354C130.618 244.55 130.329 244.844 130.105 245.236C129.89 245.619 129.783 246.076 129.783 246.608C129.783 247.14 129.89 247.607 130.105 248.008C130.329 248.409 130.618 248.717 130.973 248.932C131.337 249.137 131.72 249.24 132.121 249.24C132.532 249.24 132.914 249.137 133.269 248.932C133.624 248.727 133.908 248.428 134.123 248.036C134.347 247.635 134.459 247.168 134.459 246.636Z" fill="white" fill-opacity="0.45"/>
<path d="M169.336 240.77V242.072H166.746V250.5H165.15V242.072H162.546V240.77H169.336ZM174.942 242.66C175.53 242.66 176.053 242.786 176.51 243.038C176.977 243.29 177.341 243.663 177.602 244.158C177.873 244.653 178.008 245.25 178.008 245.95V250.5H176.426V246.188C176.426 245.497 176.254 244.97 175.908 244.606C175.563 244.233 175.092 244.046 174.494 244.046C173.897 244.046 173.421 244.233 173.066 244.606C172.721 244.97 172.548 245.497 172.548 246.188V250.5H170.952V240.14H172.548V243.682C172.819 243.355 173.16 243.103 173.57 242.926C173.99 242.749 174.448 242.66 174.942 242.66ZM187.03 242.786V250.5H185.434V249.59C185.182 249.907 184.851 250.159 184.44 250.346C184.039 250.523 183.609 250.612 183.152 250.612C182.545 250.612 181.999 250.486 181.514 250.234C181.038 249.982 180.66 249.609 180.38 249.114C180.109 248.619 179.974 248.022 179.974 247.322V242.786H181.556V247.084C181.556 247.775 181.729 248.307 182.074 248.68C182.419 249.044 182.891 249.226 183.488 249.226C184.085 249.226 184.557 249.044 184.902 248.68C185.257 248.307 185.434 247.775 185.434 247.084V242.786H187.03Z" fill="white" fill-opacity="0.45"/>
<path d="M219.776 240.77V242.072H215.646V244.942H218.866V246.244H215.646V250.5H214.05V240.77H219.776ZM222.851 243.906C223.084 243.514 223.392 243.211 223.775 242.996C224.167 242.772 224.629 242.66 225.161 242.66V244.312H224.755C224.13 244.312 223.654 244.471 223.327 244.788C223.01 245.105 222.851 245.656 222.851 246.44V250.5H221.255V242.786H222.851V243.906ZM227.44 241.764C227.151 241.764 226.908 241.666 226.712 241.47C226.516 241.274 226.418 241.031 226.418 240.742C226.418 240.453 226.516 240.21 226.712 240.014C226.908 239.818 227.151 239.72 227.44 239.72C227.72 239.72 227.958 239.818 228.154 240.014C228.35 240.21 228.448 240.453 228.448 240.742C228.448 241.031 228.35 241.274 228.154 241.47C227.958 241.666 227.72 241.764 227.44 241.764ZM228.224 242.786V250.5H226.628V242.786H228.224Z" fill="white" fill-opacity="0.45"/>
<path d="M258.256 250.598C257.603 250.598 257.015 250.486 256.492 250.262C255.969 250.029 255.559 249.702 255.26 249.282C254.961 248.862 254.812 248.372 254.812 247.812H256.52C256.557 248.232 256.721 248.577 257.01 248.848C257.309 249.119 257.724 249.254 258.256 249.254C258.807 249.254 259.236 249.123 259.544 248.862C259.852 248.591 260.006 248.246 260.006 247.826C260.006 247.499 259.908 247.233 259.712 247.028C259.525 246.823 259.287 246.664 258.998 246.552C258.718 246.44 258.326 246.319 257.822 246.188C257.187 246.02 256.669 245.852 256.268 245.684C255.876 245.507 255.54 245.236 255.26 244.872C254.98 244.508 254.84 244.023 254.84 243.416C254.84 242.856 254.98 242.366 255.26 241.946C255.54 241.526 255.932 241.204 256.436 240.98C256.94 240.756 257.523 240.644 258.186 240.644C259.129 240.644 259.899 240.882 260.496 241.358C261.103 241.825 261.439 242.469 261.504 243.29H259.74C259.712 242.935 259.544 242.632 259.236 242.38C258.928 242.128 258.522 242.002 258.018 242.002C257.561 242.002 257.187 242.119 256.898 242.352C256.609 242.585 256.464 242.921 256.464 243.36C256.464 243.659 256.553 243.906 256.73 244.102C256.917 244.289 257.15 244.438 257.43 244.55C257.71 244.662 258.093 244.783 258.578 244.914C259.222 245.091 259.745 245.269 260.146 245.446C260.557 245.623 260.902 245.899 261.182 246.272C261.471 246.636 261.616 247.126 261.616 247.742C261.616 248.237 261.481 248.703 261.21 249.142C260.949 249.581 260.561 249.935 260.048 250.206C259.544 250.467 258.947 250.598 258.256 250.598ZM262.967 246.608C262.967 245.833 263.126 245.147 263.443 244.55C263.77 243.953 264.209 243.491 264.759 243.164C265.319 242.828 265.935 242.66 266.607 242.66C267.214 242.66 267.741 242.781 268.189 243.024C268.647 243.257 269.011 243.551 269.281 243.906V242.786H270.891V250.5H269.281V249.352C269.011 249.716 268.642 250.019 268.175 250.262C267.709 250.505 267.177 250.626 266.579 250.626C265.917 250.626 265.31 250.458 264.759 250.122C264.209 249.777 263.77 249.301 263.443 248.694C263.126 248.078 262.967 247.383 262.967 246.608ZM269.281 246.636C269.281 246.104 269.169 245.642 268.945 245.25C268.731 244.858 268.446 244.559 268.091 244.354C267.737 244.149 267.354 244.046 266.943 244.046C266.533 244.046 266.15 244.149 265.795 244.354C265.441 244.55 265.151 244.844 264.927 245.236C264.713 245.619 264.605 246.076 264.605 246.608C264.605 247.14 264.713 247.607 264.927 248.008C265.151 248.409 265.441 248.717 265.795 248.932C266.159 249.137 266.542 249.24 266.943 249.24C267.354 249.24 267.737 249.137 268.091 248.932C268.446 248.727 268.731 248.428 268.945 248.036C269.169 247.635 269.281 247.168 269.281 246.636ZM274.85 244.088V248.358C274.85 248.647 274.915 248.857 275.046 248.988C275.186 249.109 275.419 249.17 275.746 249.17H276.726V250.5H275.466C274.747 250.5 274.196 250.332 273.814 249.996C273.431 249.66 273.24 249.114 273.24 248.358V244.088H272.33V242.786H273.24V240.868H274.85V242.786H276.726V244.088H274.85Z" fill="white" fill-opacity="0.45"/>
<path d="M306.256 250.598C305.603 250.598 305.015 250.486 304.492 250.262C303.969 250.029 303.559 249.702 303.26 249.282C302.961 248.862 302.812 248.372 302.812 247.812H304.52C304.557 248.232 304.721 248.577 305.01 248.848C305.309 249.119 305.724 249.254 306.256 249.254C306.807 249.254 307.236 249.123 307.544 248.862C307.852 248.591 308.006 248.246 308.006 247.826C308.006 247.499 307.908 247.233 307.712 247.028C307.525 246.823 307.287 246.664 306.998 246.552C306.718 246.44 306.326 246.319 305.822 246.188C305.187 246.02 304.669 245.852 304.268 245.684C303.876 245.507 303.54 245.236 303.26 244.872C302.98 244.508 302.84 244.023 302.84 243.416C302.84 242.856 302.98 242.366 303.26 241.946C303.54 241.526 303.932 241.204 304.436 240.98C304.94 240.756 305.523 240.644 306.186 240.644C307.129 240.644 307.899 240.882 308.496 241.358C309.103 241.825 309.439 242.469 309.504 243.29H307.74C307.712 242.935 307.544 242.632 307.236 242.38C306.928 242.128 306.522 242.002 306.018 242.002C305.561 242.002 305.187 242.119 304.898 242.352C304.609 242.585 304.464 242.921 304.464 243.36C304.464 243.659 304.553 243.906 304.73 244.102C304.917 244.289 305.15 244.438 305.43 244.55C305.71 244.662 306.093 244.783 306.578 244.914C307.222 245.091 307.745 245.269 308.146 245.446C308.557 245.623 308.902 245.899 309.182 246.272C309.471 246.636 309.616 247.126 309.616 247.742C309.616 248.237 309.481 248.703 309.21 249.142C308.949 249.581 308.561 249.935 308.048 250.206C307.544 250.467 306.947 250.598 306.256 250.598ZM318.485 242.786V250.5H316.889V249.59C316.637 249.907 316.306 250.159 315.895 250.346C315.494 250.523 315.065 250.612 314.607 250.612C314.001 250.612 313.455 250.486 312.969 250.234C312.493 249.982 312.115 249.609 311.835 249.114C311.565 248.619 311.429 248.022 311.429 247.322V242.786H313.011V247.084C313.011 247.775 313.184 248.307 313.529 248.68C313.875 249.044 314.346 249.226 314.943 249.226C315.541 249.226 316.012 249.044 316.357 248.68C316.712 248.307 316.889 247.775 316.889 247.084V242.786H318.485ZM324.483 242.66C325.09 242.66 325.631 242.786 326.107 243.038C326.592 243.29 326.97 243.663 327.241 244.158C327.512 244.653 327.647 245.25 327.647 245.95V250.5H326.065V246.188C326.065 245.497 325.892 244.97 325.547 244.606C325.202 244.233 324.73 244.046 324.133 244.046C323.536 244.046 323.06 244.233 322.705 244.606C322.36 244.97 322.187 245.497 322.187 246.188V250.5H320.591V242.786H322.187V243.668C322.448 243.351 322.78 243.103 323.181 242.926C323.592 242.749 324.026 242.66 324.483 242.66Z" fill="white" fill-opacity="0.45"/>
<path d="M0.696 46.912C0.744 46.168 1.028 45.588 1.548 45.172C2.076 44.756 2.748 44.548 3.564 44.548C4.124 44.548 4.608 44.648 5.016 44.848C5.424 45.048 5.732 45.32 5.94 45.664C6.148 46.008 6.252 46.396 6.252 46.828C6.252 47.324 6.12 47.748 5.856 48.1C5.592 48.452 5.276 48.688 4.908 48.808V48.856C5.38 49 5.748 49.264 6.012 49.648C6.276 50.024 6.408 50.508 6.408 51.1C6.408 51.572 6.3 51.992 6.084 52.36C5.868 52.728 5.548 53.02 5.124 53.236C4.7 53.444 4.192 53.548 3.6 53.548C2.736 53.548 2.024 53.328 1.464 52.888C0.912 52.44 0.616 51.8 0.576 50.968H1.896C1.928 51.392 2.092 51.74 2.388 52.012C2.684 52.276 3.084 52.408 3.588 52.408C4.076 52.408 4.452 52.276 4.716 52.012C4.98 51.74 5.112 51.392 5.112 50.968C5.112 50.408 4.932 50.012 4.572 49.78C4.22 49.54 3.676 49.42 2.94 49.42H2.628V48.292H2.952C3.6 48.284 4.092 48.176 4.428 47.968C4.772 47.76 4.944 47.432 4.944 46.984C4.944 46.6 4.82 46.296 4.572 46.072C4.324 45.84 3.972 45.724 3.516 45.724C3.068 45.724 2.72 45.84 2.472 46.072C2.224 46.296 2.076 46.576 2.028 46.912H0.696ZM13.485 45.928H9.465V48.316C9.633 48.092 9.881 47.904 10.209 47.752C10.545 47.6 10.901 47.524 11.277 47.524C11.949 47.524 12.493 47.668 12.909 47.956C13.333 48.244 13.633 48.608 13.809 49.048C13.993 49.488 14.085 49.952 14.085 50.44C14.085 51.032 13.969 51.56 13.737 52.024C13.513 52.48 13.173 52.84 12.717 53.104C12.269 53.368 11.717 53.5 11.061 53.5C10.189 53.5 9.489 53.284 8.961 52.852C8.433 52.42 8.117 51.848 8.013 51.136H9.345C9.433 51.512 9.629 51.812 9.933 52.036C10.237 52.252 10.617 52.36 11.073 52.36C11.641 52.36 12.065 52.188 12.345 51.844C12.633 51.5 12.777 51.044 12.777 50.476C12.777 49.9 12.633 49.46 12.345 49.156C12.057 48.844 11.633 48.688 11.073 48.688C10.681 48.688 10.349 48.788 10.077 48.988C9.813 49.18 9.621 49.444 9.501 49.78H8.205V44.728H13.485V45.928ZM15.5091 49.012C15.5091 47.628 15.7411 46.548 16.2051 45.772C16.6771 44.988 17.4851 44.596 18.6291 44.596C19.7731 44.596 20.5771 44.988 21.0411 45.772C21.5131 46.548 21.7491 47.628 21.7491 49.012C21.7491 50.412 21.5131 51.508 21.0411 52.3C20.5771 53.084 19.7731 53.476 18.6291 53.476C17.4851 53.476 16.6771 53.084 16.2051 52.3C15.7411 51.508 15.5091 50.412 15.5091 49.012ZM20.4051 49.012C20.4051 48.364 20.3611 47.816 20.2731 47.368C20.1931 46.92 20.0251 46.556 19.7691 46.276C19.5131 45.988 19.1331 45.844 18.6291 45.844C18.1251 45.844 17.7451 45.988 17.4891 46.276C17.2331 46.556 17.0611 46.92 16.9731 47.368C16.8931 47.816 16.8531 48.364 16.8531 49.012C16.8531 49.684 16.8931 50.248 16.9731 50.704C17.0531 51.16 17.2211 51.528 17.4771 51.808C17.7411 52.088 18.1251 52.228 18.6291 52.228C19.1331 52.228 19.5131 52.088 19.7691 51.808C20.0331 51.528 20.2051 51.16 20.2851 50.704C20.3651 50.248 20.4051 49.684 20.4051 49.012Z" fill="white" fill-opacity="0.45"/>
<path d="M0.696 97.912C0.744 97.168 1.028 96.588 1.548 96.172C2.076 95.756 2.748 95.548 3.564 95.548C4.124 95.548 4.608 95.648 5.016 95.848C5.424 96.048 5.732 96.32 5.94 96.664C6.148 97.008 6.252 97.396 6.252 97.828C6.252 98.324 6.12 98.748 5.856 99.1C5.592 99.452 5.276 99.688 4.908 99.808V99.856C5.38 100 5.748 100.264 6.012 100.648C6.276 101.024 6.408 101.508 6.408 102.1C6.408 102.572 6.3 102.992 6.084 103.36C5.868 103.728 5.548 104.02 5.124 104.236C4.7 104.444 4.192 104.548 3.6 104.548C2.736 104.548 2.024 104.328 1.464 103.888C0.912 103.44 0.616 102.8 0.576 101.968H1.896C1.928 102.392 2.092 102.74 2.388 103.012C2.684 103.276 3.084 103.408 3.588 103.408C4.076 103.408 4.452 103.276 4.716 103.012C4.98 102.74 5.112 102.392 5.112 101.968C5.112 101.408 4.932 101.012 4.572 100.78C4.22 100.54 3.676 100.42 2.94 100.42H2.628V99.292H2.952C3.6 99.284 4.092 99.176 4.428 98.968C4.772 98.76 4.944 98.432 4.944 97.984C4.944 97.6 4.82 97.296 4.572 97.072C4.324 96.84 3.972 96.724 3.516 96.724C3.068 96.724 2.72 96.84 2.472 97.072C2.224 97.296 2.076 97.576 2.028 97.912H0.696ZM7.845 100.012C7.845 98.628 8.077 97.548 8.541 96.772C9.013 95.988 9.821 95.596 10.965 95.596C12.109 95.596 12.913 95.988 13.377 96.772C13.849 97.548 14.085 98.628 14.085 100.012C14.085 101.412 13.849 102.508 13.377 103.3C12.913 104.084 12.109 104.476 10.965 104.476C9.821 104.476 9.013 104.084 8.541 103.3C8.077 102.508 7.845 101.412 7.845 100.012ZM12.741 100.012C12.741 99.364 12.697 98.816 12.609 98.368C12.529 97.92 12.361 97.556 12.105 97.276C11.849 96.988 11.469 96.844 10.965 96.844C10.461 96.844 10.081 96.988 9.825 97.276C9.569 97.556 9.397 97.92 9.309 98.368C9.229 98.816 9.189 99.364 9.189 100.012C9.189 100.684 9.229 101.248 9.309 101.704C9.389 102.16 9.557 102.528 9.813 102.808C10.077 103.088 10.461 103.228 10.965 103.228C11.469 103.228 11.849 103.088 12.105 102.808C12.369 102.528 12.541 102.16 12.621 101.704C12.701 101.248 12.741 100.684 12.741 100.012ZM15.5325 100.012C15.5325 98.628 15.7645 97.548 16.2285 96.772C16.7005 95.988 17.5085 95.596 18.6525 95.596C19.7965 95.596 20.6005 95.988 21.0645 96.772C21.5365 97.548 21.7725 98.628 21.7725 100.012C21.7725 101.412 21.5365 102.508 21.0645 103.3C20.6005 104.084 19.7965 104.476 18.6525 104.476C17.5085 104.476 16.7005 104.084 16.2285 103.3C15.7645 102.508 15.5325 101.412 15.5325 100.012ZM20.4285 100.012C20.4285 99.364 20.3845 98.816 20.2965 98.368C20.2165 97.92 20.0485 97.556 19.7925 97.276C19.5365 96.988 19.1565 96.844 18.6525 96.844C18.1485 96.844 17.7685 96.988 17.5125 97.276C17.2565 97.556 17.0845 97.92 16.9965 98.368C16.9165 98.816 16.8765 99.364 16.8765 100.012C16.8765 100.684 16.9165 101.248 16.9965 101.704C17.0765 102.16 17.2445 102.528 17.5005 102.808C17.7645 103.088 18.1485 103.228 18.6525 103.228C19.1565 103.228 19.5365 103.088 19.7925 102.808C20.0565 102.528 20.2285 102.16 20.3085 101.704C20.3885 101.248 20.4285 100.684 20.4285 100.012Z" fill="white" fill-opacity="0.45"/>
<path d="M1.476 153.64C2.244 152.976 2.848 152.432 3.288 152.008C3.736 151.576 4.108 151.128 4.404 150.664C4.7 150.2 4.848 149.736 4.848 149.272C4.848 148.792 4.732 148.416 4.5 148.144C4.276 147.872 3.92 147.736 3.432 147.736C2.96 147.736 2.592 147.888 2.328 148.192C2.072 148.488 1.936 148.888 1.92 149.392H0.6C0.624 148.48 0.896 147.784 1.416 147.304C1.944 146.816 2.612 146.572 3.42 146.572C4.292 146.572 4.972 146.812 5.46 147.292C5.956 147.772 6.204 148.412 6.204 149.212C6.204 149.788 6.056 150.344 5.76 150.88C5.472 151.408 5.124 151.884 4.716 152.308C4.316 152.724 3.804 153.208 3.18 153.76L2.64 154.24H6.444V155.38H0.612V154.384L1.476 153.64ZM13.2858 147.928H9.26578V150.316C9.43378 150.092 9.68178 149.904 10.0098 149.752C10.3458 149.6 10.7018 149.524 11.0778 149.524C11.7498 149.524 12.2938 149.668 12.7098 149.956C13.1338 150.244 13.4338 150.608 13.6098 151.048C13.7938 151.488 13.8858 151.952 13.8858 152.44C13.8858 153.032 13.7698 153.56 13.5378 154.024C13.3138 154.48 12.9738 154.84 12.5178 155.104C12.0698 155.368 11.5178 155.5 10.8618 155.5C9.98978 155.5 9.28978 155.284 8.76178 154.852C8.23378 154.42 7.91778 153.848 7.81378 153.136H9.14578C9.23378 153.512 9.42978 153.812 9.73378 154.036C10.0378 154.252 10.4178 154.36 10.8738 154.36C11.4418 154.36 11.8658 154.188 12.1458 153.844C12.4338 153.5 12.5778 153.044 12.5778 152.476C12.5778 151.9 12.4338 151.46 12.1458 151.156C11.8578 150.844 11.4338 150.688 10.8738 150.688C10.4818 150.688 10.1498 150.788 9.87778 150.988C9.61378 151.18 9.42178 151.444 9.30178 151.78H8.00578V146.728H13.2858V147.928ZM15.3098 151.012C15.3098 149.628 15.5418 148.548 16.0058 147.772C16.4778 146.988 17.2858 146.596 18.4298 146.596C19.5738 146.596 20.3778 146.988 20.8418 147.772C21.3138 148.548 21.5498 149.628 21.5498 151.012C21.5498 152.412 21.3138 153.508 20.8418 154.3C20.3778 155.084 19.5738 155.476 18.4298 155.476C17.2858 155.476 16.4778 155.084 16.0058 154.3C15.5418 153.508 15.3098 152.412 15.3098 151.012ZM20.2058 151.012C20.2058 150.364 20.1618 149.816 20.0738 149.368C19.9938 148.92 19.8258 148.556 19.5698 148.276C19.3138 147.988 18.9338 147.844 18.4298 147.844C17.9258 147.844 17.5458 147.988 17.2898 148.276C17.0338 148.556 16.8618 148.92 16.7738 149.368C16.6938 149.816 16.6538 150.364 16.6538 151.012C16.6538 151.684 16.6938 152.248 16.7738 152.704C16.8538 153.16 17.0218 153.528 17.2778 153.808C17.5418 154.088 17.9258 154.228 18.4298 154.228C18.9338 154.228 19.3138 154.088 19.5698 153.808C19.8338 153.528 20.0058 153.16 20.0858 152.704C20.1658 152.248 20.2058 151.684 20.2058 151.012Z" fill="white" fill-opacity="0.45"/>
<path d="M1.476 204.64C2.244 203.976 2.848 203.432 3.288 203.008C3.736 202.576 4.108 202.128 4.404 201.664C4.7 201.2 4.848 200.736 4.848 200.272C4.848 199.792 4.732 199.416 4.5 199.144C4.276 198.872 3.92 198.736 3.432 198.736C2.96 198.736 2.592 198.888 2.328 199.192C2.072 199.488 1.936 199.888 1.92 200.392H0.6C0.624 199.48 0.896 198.784 1.416 198.304C1.944 197.816 2.612 197.572 3.42 197.572C4.292 197.572 4.972 197.812 5.46 198.292C5.956 198.772 6.204 199.412 6.204 200.212C6.204 200.788 6.056 201.344 5.76 201.88C5.472 202.408 5.124 202.884 4.716 203.308C4.316 203.724 3.804 204.208 3.18 204.76L2.64 205.24H6.444V206.38H0.612V205.384L1.476 204.64ZM7.64578 202.012C7.64578 200.628 7.87778 199.548 8.34178 198.772C8.81378 197.988 9.62178 197.596 10.7658 197.596C11.9098 197.596 12.7138 197.988 13.1778 198.772C13.6498 199.548 13.8858 200.628 13.8858 202.012C13.8858 203.412 13.6498 204.508 13.1778 205.3C12.7138 206.084 11.9098 206.476 10.7658 206.476C9.62178 206.476 8.81378 206.084 8.34178 205.3C7.87778 204.508 7.64578 203.412 7.64578 202.012ZM12.5418 202.012C12.5418 201.364 12.4978 200.816 12.4098 200.368C12.3298 199.92 12.1618 199.556 11.9058 199.276C11.6498 198.988 11.2698 198.844 10.7658 198.844C10.2618 198.844 9.88178 198.988 9.62578 199.276C9.36978 199.556 9.19778 199.92 9.10978 200.368C9.02978 200.816 8.98978 201.364 8.98978 202.012C8.98978 202.684 9.02978 203.248 9.10978 203.704C9.18978 204.16 9.35778 204.528 9.61378 204.808C9.87778 205.088 10.2618 205.228 10.7658 205.228C11.2698 205.228 11.6498 205.088 11.9058 204.808C12.1698 204.528 12.3418 204.16 12.4218 203.704C12.5018 203.248 12.5418 202.684 12.5418 202.012ZM15.3333 202.012C15.3333 200.628 15.5653 199.548 16.0293 198.772C16.5013 197.988 17.3093 197.596 18.4533 197.596C19.5973 197.596 20.4013 197.988 20.8653 198.772C21.3373 199.548 21.5733 200.628 21.5733 202.012C21.5733 203.412 21.3373 204.508 20.8653 205.3C20.4013 206.084 19.5973 206.476 18.4533 206.476C17.3093 206.476 16.5013 206.084 16.0293 205.3C15.5653 204.508 15.3333 203.412 15.3333 202.012ZM20.2293 202.012C20.2293 201.364 20.1853 200.816 20.0973 200.368C20.0173 199.92 19.8493 199.556 19.5933 199.276C19.3373 198.988 18.9573 198.844 18.4533 198.844C17.9493 198.844 17.5693 198.988 17.3133 199.276C17.0573 199.556 16.8853 199.92 16.7973 200.368C16.7173 200.816 16.6773 201.364 16.6773 202.012C16.6773 202.684 16.7173 203.248 16.7973 203.704C16.8773 204.16 17.0453 204.528 17.3013 204.808C17.5653 205.088 17.9493 205.228 18.4533 205.228C18.9573 205.228 19.3373 205.088 19.5933 204.808C19.8573 204.528 20.0293 204.16 20.1093 203.704C20.1893 203.248 20.2293 202.684 20.2293 202.012Z" fill="white" fill-opacity="0.45"/>
<g filter="url(#filter0_d_1_679)">
<path d="M56 200C56 200 94.5 65.4999 189.5 128C284.5 190.5 322.5 52.9999 322.5 52.9999" stroke="url(#paint0_linear_1_679)" stroke-width="2" stroke-linecap="round" shape-rendering="crispEdges"/>
</g>
<circle cx="221" cy="142.5" r="9.75" fill="white" stroke="url(#paint1_linear_1_679)" stroke-width="4.5"/>
<g filter="url(#filter1_d_1_679)">
<path d="M240 92.5H202C196.477 92.5 192 96.9771 192 102.5V110.183C192 115.706 196.477 120.183 202 120.183H213.444C216.057 120.183 217.991 122.562 220.603 122.5C223.032 122.441 225.207 120.183 227.637 120.183H240C245.523 120.183 250 115.706 250 110.183V102.5C250 96.9772 245.523 92.5 240 92.5Z" fill="url(#paint2_linear_1_679)"/>
</g>
<path d="M211.637 107.52C211.637 107.853 211.554 108.167 211.387 108.46C211.227 108.753 210.987 109 210.667 109.2C210.354 109.4 209.981 109.52 209.547 109.56V110.37H208.897V109.56C208.271 109.5 207.764 109.303 207.377 108.97C206.991 108.637 206.797 108.197 206.797 107.65H208.017C208.037 107.91 208.121 108.127 208.267 108.3C208.414 108.467 208.624 108.573 208.897 108.62V106.42C208.451 106.307 208.087 106.193 207.807 106.08C207.527 105.96 207.287 105.773 207.087 105.52C206.894 105.267 206.797 104.92 206.797 104.48C206.797 103.927 206.991 103.47 207.377 103.11C207.764 102.743 208.271 102.53 208.897 102.47V101.66H209.547V102.47C210.134 102.523 210.604 102.71 210.957 103.03C211.317 103.343 211.521 103.777 211.567 104.33H210.347C210.327 104.123 210.247 103.94 210.107 103.78C209.967 103.613 209.781 103.5 209.547 103.44V105.6C209.994 105.707 210.357 105.82 210.637 105.94C210.917 106.053 211.154 106.237 211.347 106.49C211.541 106.737 211.637 107.08 211.637 107.52ZM207.957 104.42C207.957 104.693 208.037 104.907 208.197 105.06C208.364 105.213 208.597 105.337 208.897 105.43V103.41C208.611 103.443 208.381 103.547 208.207 103.72C208.041 103.893 207.957 104.127 207.957 104.42ZM209.547 108.62C209.841 108.573 210.071 108.457 210.237 108.27C210.404 108.077 210.487 107.847 210.487 107.58C210.487 107.313 210.404 107.107 210.237 106.96C210.077 106.807 209.847 106.683 209.547 106.59V108.62ZM213.931 107.95C214.571 107.397 215.075 106.943 215.441 106.59C215.815 106.23 216.125 105.857 216.371 105.47C216.618 105.083 216.741 104.697 216.741 104.31C216.741 103.91 216.645 103.597 216.451 103.37C216.265 103.143 215.968 103.03 215.561 103.03C215.168 103.03 214.861 103.157 214.641 103.41C214.428 103.657 214.315 103.99 214.301 104.41H213.201C213.221 103.65 213.448 103.07 213.881 102.67C214.321 102.263 214.878 102.06 215.551 102.06C216.278 102.06 216.845 102.26 217.251 102.66C217.665 103.06 217.871 103.593 217.871 104.26C217.871 104.74 217.748 105.203 217.501 105.65C217.261 106.09 216.971 106.487 216.631 106.84C216.298 107.187 215.871 107.59 215.351 108.05L214.901 108.45H218.071V109.4H213.211V108.57L213.931 107.95ZM220.493 107.52C220.559 107.853 220.703 108.107 220.923 108.28C221.143 108.453 221.439 108.54 221.813 108.54C222.286 108.54 222.633 108.353 222.853 107.98C223.073 107.607 223.183 106.97 223.183 106.07C223.023 106.297 222.796 106.473 222.503 106.6C222.216 106.72 221.903 106.78 221.563 106.78C221.129 106.78 220.736 106.693 220.383 106.52C220.029 106.34 219.749 106.077 219.543 105.73C219.343 105.377 219.243 104.95 219.243 104.45C219.243 103.717 219.456 103.133 219.883 102.7C220.316 102.26 220.909 102.04 221.663 102.04C222.569 102.04 223.213 102.343 223.593 102.95C223.979 103.55 224.173 104.473 224.173 105.72C224.173 106.58 224.099 107.283 223.953 107.83C223.813 108.377 223.566 108.79 223.213 109.07C222.859 109.35 222.369 109.49 221.743 109.49C221.029 109.49 220.479 109.303 220.093 108.93C219.706 108.557 219.489 108.087 219.443 107.52H220.493ZM221.763 105.82C222.163 105.82 222.476 105.697 222.703 105.45C222.936 105.197 223.053 104.863 223.053 104.45C223.053 103.99 222.929 103.633 222.683 103.38C222.443 103.12 222.113 102.99 221.693 102.99C221.273 102.99 220.939 103.123 220.693 103.39C220.453 103.65 220.333 103.993 220.333 104.42C220.333 104.827 220.449 105.163 220.683 105.43C220.923 105.69 221.283 105.82 221.763 105.82ZM230.12 103.19H226.77V105.18C226.91 104.993 227.117 104.837 227.39 104.71C227.67 104.583 227.967 104.52 228.28 104.52C228.84 104.52 229.294 104.64 229.64 104.88C229.994 105.12 230.244 105.423 230.39 105.79C230.544 106.157 230.62 106.543 230.62 106.95C230.62 107.443 230.524 107.883 230.33 108.27C230.144 108.65 229.86 108.95 229.48 109.17C229.107 109.39 228.647 109.5 228.1 109.5C227.374 109.5 226.79 109.32 226.35 108.96C225.91 108.6 225.647 108.123 225.56 107.53H226.67C226.744 107.843 226.907 108.093 227.16 108.28C227.414 108.46 227.73 108.55 228.11 108.55C228.584 108.55 228.937 108.407 229.17 108.12C229.41 107.833 229.53 107.453 229.53 106.98C229.53 106.5 229.41 106.133 229.17 105.88C228.93 105.62 228.577 105.49 228.11 105.49C227.784 105.49 227.507 105.573 227.28 105.74C227.06 105.9 226.9 106.12 226.8 106.4H225.72V102.19H230.12V103.19ZM236.427 103.09L233.647 109.5H232.497L235.307 103.21H231.607V102.24H236.427V103.09Z" fill="#FFFEFE"/>
<defs>
<filter id="filter0_d_1_679" x="38.9995" y="39.9996" width="300.501" height="181.001" filterUnits="userSpaceOnUse" color-interpolation-filters="sRGB">
<feFlood flood-opacity="0" result="BackgroundImageFix"/>
<feColorMatrix in="SourceAlpha" type="matrix" values="0 0 0 0 0 0 0 0 0 0 0 0 0 0 0 0 0 0 127 0" result="hardAlpha"/>
<feOffset dy="4"/>
<feGaussianBlur stdDeviation="8"/>
<feComposite in2="hardAlpha" operator="out"/>
<feColorMatrix type="matrix" values="0 0 0 0 0.298039 0 0 0 0 0.247059 0 0 0 0 0.568627 0 0 0 0.25 0"/>
<feBlend mode="normal" in2="BackgroundImageFix" result="effect1_dropShadow_1_679"/>
<feBlend mode="normal" in="SourceGraphic" in2="effect1_dropShadow_1_679" result="shape"/>
</filter>
<filter id="filter1_d_1_679" x="168" y="72.5" width="106" height="78.0007" filterUnits="userSpaceOnUse" color-interpolation-filters="sRGB">
<feFlood flood-opacity="0" result="BackgroundImageFix"/>
<feColorMatrix in="SourceAlpha" type="matrix" values="0 0 0 0 0 0 0 0 0 0 0 0 0 0 0 0 0 0 127 0" result="hardAlpha"/>
<feOffset dy="4"/>
<feGaussianBlur stdDeviation="12"/>
<feComposite in2="hardAlpha" operator="out"/>
<feColorMatrix type="matrix" values="0 0 0 0 0.309804 0 0 0 0 0.247059 0 0 0 0 0.568627 0 0 0 0.26 0"/>
<feBlend mode="normal" in2="BackgroundImageFix" result="effect1_dropShadow_1_679"/>
<feBlend mode="normal" in="SourceGraphic" in2="effect1_dropShadow_1_679" result="shape"/>
</filter>
<linearGradient id="paint0_linear_1_679" x1="184" y1="52.9999" x2="184" y2="216.5" gradientUnits="userSpaceOnUse">
<stop stop-color="white"/>
<stop offset="1" stop-color="white" stop-opacity="0.3"/>
</linearGradient>
<linearGradient id="paint1_linear_1_679" x1="221" y1="130.5" x2="221" y2="154.5" gradientUnits="userSpaceOnUse">
<stop stop-color="#4C3F91"/>
<stop offset="1" stop-color="#6F4CA4" stop-opacity="0.6"/>
</linearGradient>
<linearGradient id="paint2_linear_1_679" x1="192" y1="92.5" x2="252.008" y2="117.721" gradientUnits="userSpaceOnUse">
<stop stop-color="#4C3F91"/>
<stop offset="1" stop-color="#633F91"/>
</linearGradient>
</defs>
</svg>
