<svg width="24" height="24" viewBox="0 0 24 24" fill="none" xmlns="http://www.w3.org/2000/svg">
<path fill-rule="evenodd" clip-rule="evenodd" d="M10.158 9.89478C11.3208 9.89478 12.2633 10.8372 12.2633 12C12.2633 13.1629 11.3208 14.1053 10.158 14.1053C8.99515 14.1053 8.05273 13.1629 8.05273 12C8.05273 10.8372 8.99515 9.89478 10.158 9.89478Z" stroke="white" stroke-width="1.5" stroke-linecap="round" stroke-linejoin="round"/>
<path fill-rule="evenodd" clip-rule="evenodd" d="M17.0362 8.00021C16.4606 6.9962 15.1863 6.65266 14.1903 7.23244C13.324 7.73569 12.2413 7.106 12.2413 6.09867C12.2413 4.93995 11.3081 4 10.1577 4C9.00729 4 8.07407 4.93995 8.07407 6.09867C8.07407 7.106 6.99138 7.73569 6.12589 7.23244C5.12909 6.65266 3.8548 6.9962 3.27918 8.00021C2.70439 9.00421 3.04546 10.2877 4.04227 10.8666C4.90776 11.3707 4.90776 12.6293 4.04227 13.1334C3.04546 13.7131 2.70439 14.9966 3.27918 15.9998C3.8548 17.0038 5.12909 17.3473 6.12506 16.7684H6.12589C6.99138 16.2643 8.07407 16.894 8.07407 17.9013C8.07407 19.06 9.00729 20 10.1577 20C11.3081 20 12.2413 19.06 12.2413 17.9013C12.2413 16.894 13.324 16.2643 14.1903 16.7684C15.1863 17.3473 16.4606 17.0038 17.0362 15.9998C17.6118 14.9966 17.2699 13.7131 16.274 13.1334H16.2731C15.4076 12.6293 15.4076 11.3707 16.274 10.8666C17.2699 10.2877 17.6118 9.00421 17.0362 8.00021Z" stroke="white" stroke-width="1.5" stroke-linecap="round" stroke-linejoin="round"/>
</svg>
