<svg width="24" height="24" viewBox="0 0 24 24" fill="none" xmlns="http://www.w3.org/2000/svg">
<g clip-path="url(#clip0_1_564)">
<path d="M16.8182 7H8.18182C5.32318 7 3 9.24167 3 12C3 14.7583 5.32318 17 8.18182 17H16.8182C19.6768 17 22 14.7583 22 12C22 9.24167 19.6768 7 16.8182 7ZM16.8182 15.3333H8.18182C6.27318 15.3333 4.72727 13.8417 4.72727 12C4.72727 10.1583 6.27318 8.66667 8.18182 8.66667H16.8182C18.7268 8.66667 20.2727 10.1583 20.2727 12C20.2727 13.8417 18.7268 15.3333 16.8182 15.3333ZM8.18182 9.5C6.74818 9.5 5.59091 10.6167 5.59091 12C5.59091 13.3833 6.74818 14.5 8.18182 14.5C9.61545 14.5 10.7727 13.3833 10.7727 12C10.7727 10.6167 9.61545 9.5 8.18182 9.5Z" fill="white"/>
</g>
<defs>
<clipPath id="clip0_1_564">
<rect width="24" height="24" fill="white"/>
</clipPath>
</defs>
</svg>