<svg width="75" height="75" viewBox="0 0 75 75" fill="none" xmlns="http://www.w3.org/2000/svg">
<path d="M61.4204 58.5673C63.7517 60.6206 67.3477 60.4133 69.0295 57.8013C71.2014 54.428 72.8247 50.7176 73.8265 46.8077C75.2954 41.075 75.3866 35.076 74.0928 29.3013C72.7989 23.5266 70.1567 18.14 66.3823 13.5821C62.6078 9.02419 57.8081 5.42429 52.3758 3.07674C46.9434 0.729184 41.0326 -0.299366 35.1266 0.0751831C29.2206 0.449732 23.487 2.21675 18.3948 5.23175C13.3025 8.24676 8.99609 12.4241 5.82763 17.4224C3.66659 20.8314 2.07676 24.5563 1.10849 28.4497C0.358727 31.4645 2.672 34.2254 5.76496 34.5162C8.85792 34.807 11.5437 32.5017 12.4855 29.5414C13.1658 27.4033 14.1198 25.3538 15.3293 23.4457C17.5473 19.9469 20.5617 17.0227 24.1263 14.9122C27.6909 12.8017 31.7044 11.5648 35.8386 11.3026C39.9728 11.0404 44.1104 11.7604 47.9131 13.4037C51.7157 15.047 55.0754 17.5669 57.7176 20.7575C60.3597 23.948 62.2093 27.7186 63.1149 31.7609C64.0206 35.8032 63.9568 40.0025 62.9286 44.0154C62.3678 46.2039 61.529 48.3031 60.438 50.2637C58.9274 52.9783 59.089 56.5141 61.4204 58.5673Z" fill="url(#paint0_linear_1_1010)"/>
<path d="M28.96 38.05H27.07V39.99H25.75V38.05H23.86V36.83H25.75V34.89H27.07V36.83H28.96V38.05ZM31.5283 37.14C30.8617 36.7933 30.5283 36.2567 30.5283 35.53C30.5283 35.17 30.6183 34.8433 30.7983 34.55C30.985 34.25 31.2617 34.0133 31.6283 33.84C32.0017 33.66 32.455 33.57 32.9883 33.57C33.5217 33.57 33.9717 33.66 34.3383 33.84C34.7117 34.0133 34.9883 34.25 35.1683 34.55C35.355 34.8433 35.4483 35.17 35.4483 35.53C35.4483 35.8967 35.3583 36.22 35.1783 36.5C34.9983 36.7733 34.7583 36.9867 34.4583 37.14C34.825 37.3 35.1117 37.5333 35.3183 37.84C35.525 38.1467 35.6283 38.51 35.6283 38.93C35.6283 39.3833 35.5117 39.78 35.2783 40.12C35.0517 40.4533 34.7383 40.71 34.3383 40.89C33.9383 41.07 33.4883 41.16 32.9883 41.16C32.4883 41.16 32.0383 41.07 31.6383 40.89C31.245 40.71 30.9317 40.4533 30.6983 40.12C30.4717 39.78 30.3583 39.3833 30.3583 38.93C30.3583 38.51 30.4617 38.1467 30.6683 37.84C30.875 37.5267 31.1617 37.2933 31.5283 37.14ZM34.0883 35.73C34.0883 35.4033 33.9883 35.15 33.7883 34.97C33.595 34.79 33.3283 34.7 32.9883 34.7C32.655 34.7 32.3883 34.79 32.1883 34.97C31.995 35.15 31.8983 35.4067 31.8983 35.74C31.8983 36.04 31.9983 36.28 32.1983 36.46C32.405 36.64 32.6683 36.73 32.9883 36.73C33.3083 36.73 33.5717 36.64 33.7783 36.46C33.985 36.2733 34.0883 36.03 34.0883 35.73ZM32.9883 37.75C32.6083 37.75 32.2983 37.8467 32.0583 38.04C31.825 38.2333 31.7083 38.51 31.7083 38.87C31.7083 39.2033 31.8217 39.4767 32.0483 39.69C32.2817 39.8967 32.595 40 32.9883 40C33.3817 40 33.6917 39.8933 33.9183 39.68C34.145 39.4667 34.2583 39.1967 34.2583 38.87C34.2583 38.5167 34.1417 38.2433 33.9083 38.05C33.675 37.85 33.3683 37.75 32.9883 37.75ZM36.7341 37.26C36.7341 36.1067 36.9408 35.2033 37.3541 34.55C37.7741 33.8967 38.4674 33.57 39.4341 33.57C40.4008 33.57 41.0908 33.8967 41.5041 34.55C41.9241 35.2033 42.1341 36.1067 42.1341 37.26C42.1341 38.42 41.9241 39.33 41.5041 39.99C41.0908 40.65 40.4008 40.98 39.4341 40.98C38.4674 40.98 37.7741 40.65 37.3541 39.99C36.9408 39.33 36.7341 38.42 36.7341 37.26ZM40.7541 37.26C40.7541 36.7667 40.7208 36.3533 40.6541 36.02C40.5941 35.68 40.4674 35.4033 40.2741 35.19C40.0874 34.9767 39.8074 34.87 39.4341 34.87C39.0608 34.87 38.7774 34.9767 38.5841 35.19C38.3974 35.4033 38.2708 35.68 38.2041 36.02C38.1441 36.3533 38.1141 36.7667 38.1141 37.26C38.1141 37.7667 38.1441 38.1933 38.2041 38.54C38.2641 38.88 38.3908 39.1567 38.5841 39.37C38.7774 39.5767 39.0608 39.68 39.4341 39.68C39.8074 39.68 40.0908 39.5767 40.2841 39.37C40.4774 39.1567 40.6041 38.88 40.6641 38.54C40.7241 38.1933 40.7541 37.7667 40.7541 37.26ZM43.0389 35.5C43.0389 34.9933 43.1856 34.5967 43.4789 34.31C43.7789 34.0233 44.1623 33.88 44.6289 33.88C45.0956 33.88 45.4756 34.0233 45.7689 34.31C46.0689 34.5967 46.2189 34.9933 46.2189 35.5C46.2189 36.0133 46.0689 36.4133 45.7689 36.7C45.4756 36.9867 45.0956 37.13 44.6289 37.13C44.1623 37.13 43.7789 36.9867 43.4789 36.7C43.1856 36.4133 43.0389 36.0133 43.0389 35.5ZM49.4589 34L45.5289 41H44.1689L48.0889 34H49.4589ZM44.6189 34.72C44.2523 34.72 44.0689 34.98 44.0689 35.5C44.0689 36.0267 44.2523 36.29 44.6189 36.29C44.7989 36.29 44.9389 36.2267 45.0389 36.1C45.1389 35.9667 45.1889 35.7667 45.1889 35.5C45.1889 34.98 44.9989 34.72 44.6189 34.72ZM47.4289 39.49C47.4289 38.9767 47.5756 38.58 47.8689 38.3C48.1689 38.0133 48.5523 37.87 49.0189 37.87C49.4856 37.87 49.8623 38.0133 50.1489 38.3C50.4423 38.58 50.5889 38.9767 50.5889 39.49C50.5889 40.0033 50.4423 40.4033 50.1489 40.69C49.8623 40.9767 49.4856 41.12 49.0189 41.12C48.5456 41.12 48.1623 40.9767 47.8689 40.69C47.5756 40.4033 47.4289 40.0033 47.4289 39.49ZM49.0089 38.71C48.6289 38.71 48.4389 38.97 48.4389 39.49C48.4389 40.0167 48.6289 40.28 49.0089 40.28C49.3823 40.28 49.5689 40.0167 49.5689 39.49C49.5689 38.97 49.3823 38.71 49.0089 38.71Z" fill="white"/>
<path d="M69.375 37.5C72.4816 37.5 75.0432 40.0323 74.5789 43.104C73.8324 48.043 72.1036 52.8025 69.474 57.0937C65.8605 62.9904 60.6867 67.773 54.5246 70.9127C48.3626 74.0525 41.4523 75.427 34.5578 74.8844C27.6633 74.3418 21.0531 71.9032 15.4581 67.8381C9.86302 63.7731 5.5011 58.24 2.85452 51.8506C0.207942 45.4612 -0.620188 38.4644 0.461687 31.6337C1.54356 24.803 4.4933 18.4045 8.98477 13.1457C12.2533 9.31873 16.2457 6.20377 20.7122 3.9676C23.4901 2.57685 26.6901 4.23052 27.6501 7.18507C28.6101 10.1396 26.9477 13.2644 24.2649 14.8307C21.7352 16.3077 19.4589 18.2044 17.5393 20.452C14.3953 24.1332 12.3305 28.6121 11.5732 33.3936C10.8159 38.1751 11.3956 43.0729 13.2482 47.5454C15.1008 52.018 18.1541 55.8912 22.0706 58.7367C25.9872 61.5822 30.6143 63.2893 35.4404 63.6691C40.2666 64.0489 45.1038 63.0867 49.4173 60.8889C53.7307 58.6911 57.3523 55.3433 59.8818 51.2156C61.4262 48.6954 62.5267 45.9444 63.1496 43.0821C63.8102 40.0466 66.2684 37.5 69.375 37.5Z" fill="url(#paint1_linear_1_1010)"/>
<defs>
<linearGradient id="paint0_linear_1_1010" x1="37.5" y1="0" x2="37.5" y2="75" gradientUnits="userSpaceOnUse">
<stop stop-color="white"/>
<stop offset="1" stop-color="white" stop-opacity="0.8"/>
</linearGradient>
<linearGradient id="paint1_linear_1_1010" x1="0" y1="0" x2="86.1229" y2="26.6359" gradientUnits="userSpaceOnUse">
<stop stop-color="#B6A2FF"/>
<stop offset="1" stop-color="#9D5EFF"/>
</linearGradient>
</defs>
</svg>
