<svg width="75" height="75" viewBox="0 0 75 75" fill="none" xmlns="http://www.w3.org/2000/svg">
<path d="M61.4204 58.5673C63.7517 60.6206 67.3477 60.4133 69.0295 57.8013C71.2014 54.428 72.8247 50.7176 73.8265 46.8077C75.2954 41.075 75.3866 35.076 74.0928 29.3013C72.7989 23.5266 70.1567 18.14 66.3823 13.5821C62.6078 9.02419 57.8081 5.42429 52.3758 3.07674C46.9434 0.729184 41.0326 -0.299366 35.1266 0.0751831C29.2206 0.449732 23.487 2.21675 18.3948 5.23175C13.3025 8.24676 8.99609 12.4241 5.82763 17.4224C3.66659 20.8314 2.07676 24.5563 1.10849 28.4497C0.358727 31.4645 2.672 34.2254 5.76496 34.5162C8.85792 34.807 11.5437 32.5017 12.4855 29.5414C13.1658 27.4033 14.1198 25.3538 15.3293 23.4457C17.5473 19.9469 20.5617 17.0227 24.1263 14.9122C27.6909 12.8017 31.7044 11.5648 35.8386 11.3026C39.9728 11.0404 44.1104 11.7604 47.9131 13.4037C51.7157 15.047 55.0754 17.5669 57.7176 20.7575C60.3597 23.948 62.2093 27.7186 63.1149 31.7609C64.0206 35.8032 63.9568 40.0025 62.9286 44.0154C62.3678 46.2039 61.529 48.3031 60.438 50.2637C58.9274 52.9783 59.089 56.5141 61.4204 58.5673Z" fill="url(#paint0_linear_1_994)"/>
<path d="M69.375 37.5C72.4816 37.5 75.0432 40.0323 74.5789 43.104C73.8324 48.043 72.1036 52.8025 69.474 57.0937C65.8605 62.9904 60.6867 67.773 54.5246 70.9127C48.3626 74.0525 41.4523 75.427 34.5578 74.8844C27.6633 74.3418 21.0531 71.9032 15.4581 67.8381C9.86302 63.7731 5.5011 58.24 2.85452 51.8506C0.207942 45.4612 -0.620188 38.4644 0.461687 31.6337C1.54356 24.803 4.4933 18.4045 8.98477 13.1457C12.2533 9.31873 16.2457 6.20377 20.7122 3.9676C23.4901 2.57685 26.6901 4.23052 27.6501 7.18507C28.6101 10.1396 26.9477 13.2644 24.2649 14.8307C21.7352 16.3077 19.4589 18.2044 17.5393 20.452C14.3953 24.1332 12.3305 28.6121 11.5732 33.3936C10.8159 38.1751 11.3956 43.0729 13.2482 47.5454C15.1008 52.018 18.1541 55.8912 22.0706 58.7367C25.9872 61.5822 30.6143 63.2893 35.4404 63.6691C40.2666 64.0489 45.1038 63.0867 49.4173 60.8889C53.7307 58.6911 57.3523 55.3433 59.8818 51.2156C61.4262 48.6954 62.5267 45.9444 63.1496 43.0821C63.8102 40.0466 66.2684 37.5 69.375 37.5Z" fill="url(#paint1_linear_1_994)"/>
<path d="M29.9337 38.05H28.0437V39.99H26.7237V38.05H24.8337V36.83H26.7237V34.89H28.0437V36.83H29.9337V38.05ZM35.922 34.77L33.262 41H31.842L34.522 34.93H31.102V33.73H35.922V34.77ZM36.7605 37.26C36.7605 36.1067 36.9671 35.2033 37.3805 34.55C37.8005 33.8967 38.4938 33.57 39.4605 33.57C40.4271 33.57 41.1171 33.8967 41.5305 34.55C41.9505 35.2033 42.1605 36.1067 42.1605 37.26C42.1605 38.42 41.9505 39.33 41.5305 39.99C41.1171 40.65 40.4271 40.98 39.4605 40.98C38.4938 40.98 37.8005 40.65 37.3805 39.99C36.9671 39.33 36.7605 38.42 36.7605 37.26ZM40.7805 37.26C40.7805 36.7667 40.7471 36.3533 40.6805 36.02C40.6205 35.68 40.4938 35.4033 40.3005 35.19C40.1138 34.9767 39.8338 34.87 39.4605 34.87C39.0871 34.87 38.8038 34.9767 38.6105 35.19C38.4238 35.4033 38.2971 35.68 38.2305 36.02C38.1705 36.3533 38.1405 36.7667 38.1405 37.26C38.1405 37.7667 38.1705 38.1933 38.2305 38.54C38.2905 38.88 38.4171 39.1567 38.6105 39.37C38.8038 39.5767 39.0871 39.68 39.4605 39.68C39.8338 39.68 40.1171 39.5767 40.3105 39.37C40.5038 39.1567 40.6305 38.88 40.6905 38.54C40.7505 38.1933 40.7805 37.7667 40.7805 37.26ZM43.0653 35.5C43.0653 34.9933 43.212 34.5967 43.5053 34.31C43.8053 34.0233 44.1886 33.88 44.6553 33.88C45.122 33.88 45.502 34.0233 45.7953 34.31C46.0953 34.5967 46.2453 34.9933 46.2453 35.5C46.2453 36.0133 46.0953 36.4133 45.7953 36.7C45.502 36.9867 45.122 37.13 44.6553 37.13C44.1886 37.13 43.8053 36.9867 43.5053 36.7C43.212 36.4133 43.0653 36.0133 43.0653 35.5ZM49.4853 34L45.5553 41H44.1953L48.1153 34H49.4853ZM44.6453 34.72C44.2786 34.72 44.0953 34.98 44.0953 35.5C44.0953 36.0267 44.2786 36.29 44.6453 36.29C44.8253 36.29 44.9653 36.2267 45.0653 36.1C45.1653 35.9667 45.2153 35.7667 45.2153 35.5C45.2153 34.98 45.0253 34.72 44.6453 34.72ZM47.4553 39.49C47.4553 38.9767 47.602 38.58 47.8953 38.3C48.1953 38.0133 48.5786 37.87 49.0453 37.87C49.512 37.87 49.8886 38.0133 50.1753 38.3C50.4686 38.58 50.6153 38.9767 50.6153 39.49C50.6153 40.0033 50.4686 40.4033 50.1753 40.69C49.8886 40.9767 49.512 41.12 49.0453 41.12C48.572 41.12 48.1886 40.9767 47.8953 40.69C47.602 40.4033 47.4553 40.0033 47.4553 39.49ZM49.0353 38.71C48.6553 38.71 48.4653 38.97 48.4653 39.49C48.4653 40.0167 48.6553 40.28 49.0353 40.28C49.4086 40.28 49.5953 40.0167 49.5953 39.49C49.5953 38.97 49.4086 38.71 49.0353 38.71Z" fill="white"/>
<defs>
<linearGradient id="paint0_linear_1_994" x1="37.5" y1="0" x2="37.5" y2="75" gradientUnits="userSpaceOnUse">
<stop stop-color="white"/>
<stop offset="1" stop-color="white" stop-opacity="0.8"/>
</linearGradient>
<linearGradient id="paint1_linear_1_994" x1="0" y1="0" x2="86.1229" y2="26.6359" gradientUnits="userSpaceOnUse">
<stop stop-color="#D57DFF"/>
<stop offset="1" stop-color="#A645B6"/>
</linearGradient>
</defs>
</svg>
