<svg width="51" height="51" viewBox="0 0 51 51" fill="none" xmlns="http://www.w3.org/2000/svg">
<path d="M49.9235 25.9388C49.9235 39.474 38.8634 50.4532 25.2117 50.4532C11.5601 50.4532 0.5 39.474 0.5 25.9388C0.5 12.4035 11.5601 1.42432 25.2117 1.42432C38.8634 1.42432 49.9235 12.4035 49.9235 25.9388Z" stroke="url(#paint0_linear_0_1)"/>
<ellipse cx="25.3636" cy="26.0035" rx="20.0013" ry="19.8448" fill="url(#paint1_linear_0_1)"/>
<path d="M33.3346 18.9913C33.3346 19.7607 33.2384 20.4338 33.0461 21.2032C32.5653 22.7419 31.6998 24.2805 30.2573 25.5307L23.6217 31.3008L20.1597 27.8387L25.9297 21.2032C27.0837 19.8568 28.5262 18.8952 30.0649 18.4143C31.1228 18.1258 32.1806 17.9335 33.2384 18.0297C33.3346 18.4143 33.3346 18.7028 33.3346 18.9913Z" stroke="white" stroke-width="0.75" stroke-miterlimit="10" stroke-linecap="round" stroke-linejoin="round"/>
<path d="M21.9867 32.1662L19.3902 29.5697C19.1017 29.2812 19.1017 28.8965 19.3902 28.7042L20.1595 27.9348L23.6216 31.3968L22.8522 32.1662C22.6599 32.3585 22.1791 32.3585 21.9867 32.1662Z" stroke="white" stroke-width="0.75" stroke-miterlimit="10" stroke-linecap="round" stroke-linejoin="round"/>
<path d="M24.8718 32.6471L23.6216 31.3969L29.6801 26.1077C30.4495 27.0693 26.9874 31.2045 25.8334 32.6471C25.5449 32.8394 25.1603 32.8394 24.8718 32.6471Z" stroke="white" stroke-width="0.75" stroke-miterlimit="10" stroke-linecap="round" stroke-linejoin="round"/>
<path d="M18.8129 26.5885L20.1592 27.9349L25.3523 21.9725C24.3906 21.2031 20.3515 24.569 18.909 25.723C18.6205 25.9153 18.5244 26.3 18.8129 26.5885Z" stroke="white" stroke-width="0.75" stroke-miterlimit="10" stroke-linecap="round" stroke-linejoin="round"/>
<path d="M33.3346 18.9914C33.3346 19.7607 33.2385 20.4339 33.0461 21.2032L30.0649 18.5105C31.1228 18.222 32.1806 18.0297 33.2385 18.1258C33.3346 18.4143 33.3346 18.7029 33.3346 18.9914Z" stroke="white" stroke-width="0.75" stroke-miterlimit="10" stroke-linecap="round" stroke-linejoin="round"/>
<path d="M28.6222 24.1843C29.472 24.1843 30.1609 23.4954 30.1609 22.6456C30.1609 21.7958 29.472 21.1069 28.6222 21.1069C27.7724 21.1069 27.0835 21.7958 27.0835 22.6456C27.0835 23.4954 27.7724 24.1843 28.6222 24.1843Z" stroke="white" stroke-width="0.75" stroke-miterlimit="10" stroke-linecap="round" stroke-linejoin="round"/>
<path d="M16.4089 34.4744L18.2361 31.6855C18.6207 31.1085 19.4862 31.0123 20.0632 31.4932C20.6402 32.0702 20.4479 32.9357 19.7747 33.3204L16.8897 34.859C16.505 35.1475 16.2165 34.7629 16.4089 34.4744Z" stroke="white" stroke-width="0.75" stroke-miterlimit="10" stroke-linecap="round" stroke-linejoin="round"/>
<ellipse cx="8.9985" cy="9.72873" rx="8.48531" ry="8.41892" fill="url(#paint2_linear_0_1)"/>
<path d="M10.7215 13.6113L9.28599 14.4726C9.09459 14.6162 8.80749 14.6162 8.61609 14.4726L7.1806 13.6113C6.0322 12.9414 5.3623 11.793 5.3623 10.5489V7.67793C5.3623 7.39083 5.5537 7.10373 5.8408 7.05588L8.80749 6.19458C8.95104 6.14673 9.04674 6.14673 9.19029 6.19458L12.157 7.05588C12.4441 7.15158 12.6355 7.39083 12.6355 7.67793V10.5489C12.5876 11.7452 11.8699 12.8936 10.7215 13.6113Z" stroke="white" stroke-width="0.75" stroke-miterlimit="10" stroke-linecap="round" stroke-linejoin="round"/>
<path d="M7.03662 10.4052L8.28072 11.6972L10.8646 9.06543" stroke="white" stroke-width="0.75" stroke-miterlimit="10" stroke-linecap="round" stroke-linejoin="round"/>
<defs>
<linearGradient id="paint0_linear_0_1" x1="-7.20341" y1="4.52602" x2="14.4068" y2="67.5558" gradientUnits="userSpaceOnUse">
<stop stop-color="#DAC400"/>
<stop offset="1" stop-color="#A36200"/>
</linearGradient>
<linearGradient id="paint1_linear_0_1" x1="5.3623" y1="6.15869" x2="51.8304" y2="16.3404" gradientUnits="userSpaceOnUse">
<stop stop-color="#915D3F"/>
<stop offset="1" stop-color="#633F91"/>
</linearGradient>
<linearGradient id="paint2_linear_0_1" x1="-1.91121" y1="2.52201" x2="5.36197" y2="23.7354" gradientUnits="userSpaceOnUse">
<stop stop-color="#DAC400"/>
<stop offset="1" stop-color="#A36200"/>
</linearGradient>
</defs>
</svg>
